<svg id="Capa_1" enable-background="new 0 0 512 512" height="512" viewBox="0 0 512 512" width="512" xmlns="http://www.w3.org/2000/svg"><g><g><g><path d="m271.653 504.5h-226.64c0-43.06 7.1-94.9 10.48-117.18 1.11-7.26 5.38-13.68 11.68-17.46 12-7.19 24.67-12.89 36.62-17.36 22.08-8.29 41.71-12.38 50.15-13.9 2.91-.53 5.87-.53 8.78 0 8.44 1.52 28.07 5.61 50.15 13.9 11.95 4.47 24.62 10.17 36.62 17.36 6.3 3.78 10.57 10.2 11.68 17.46 3.38 22.28 10.48 74.12 10.48 117.18z" fill="#f9f6f6"/><path d="m106.403 504.5h-16.8c0-28.63 10.59-66.53 10.59-66.53s.26 37.48 6.21 66.53z" fill="#e7ecf6"/><path d="m245.943 504.5h-18.88c0-28.63-10.59-66.53-10.59-66.53s28.78 14.94 29.47 66.53z" fill="#e7ecf6"/><path d="m131.204 396.472 15.925 18.854h11.204 11.204l15.926-18.854v-39.717h-62.859" fill="#dd636e"/><path d="m67.173 369.86c6.44-3.86 13.08-7.29 19.69-10.33-4.87 4.09-8.18 10.96-9.04 18.72-2.64 24.01-8.2 79.86-8.2 126.25h-24.61c0-43.06 7.1-94.9 10.48-117.18 1.11-7.26 5.38-13.68 11.68-17.46z" fill="#e7ecf6"/><path d="m212.873 352.5-18.81 52.24-35.73-34.35-35.73 34.35-18.81-52.24c22.08-8.29 41.71-12.38 50.15-13.9 2.91-.53 5.87-.53 8.78 0 8.44 1.52 28.07 5.61 50.15 13.9z" fill="#e7ecf6"/><path d="m185.459 297.963v45.302c0 14.978-12.146 27.124-27.124 27.124-14.986 0-27.132-12.146-27.132-27.124v-45.302z" fill="#ffddce"/><g fill="#ffcbbe"><path d="m167.194 368.909c-2.775.955-5.755 1.477-8.856 1.477-14.986 0-27.132-12.146-27.132-27.124v-45.302h17.713v45.302c-.001 11.885 7.639 21.982 18.275 25.647z"/><path d="m45.01 260.241c-19.558 0-35.414-15.855-35.414-35.414 0-2.692.3-5.313.869-7.833 4.594-20.346 34.544-17.009 34.544 3.849h226.647c0-20.859 29.95-24.196 34.544-3.849.569 2.52.869 5.141.869 7.833 0 19.558-15.855 35.414-35.414 35.414"/><path d="m131.204 297.963h54.256v41.735h-54.256z"/></g><path d="m189.06 325.338h-61.454c-45.617 0-82.596-36.98-82.596-82.596v-116.49h226.647v116.49c0 45.616-36.98 82.596-82.597 82.596z" fill="#ffddce"/><path d="m181.862 325.337h-54.256c-45.612 0-82.596-36.984-82.596-82.596v-116.494h54.256v116.494c0 45.612 36.976 82.596 82.596 82.596z" fill="#ffcbbe"/><g fill="#eaa598"><ellipse cx="233.091" cy="240.609" rx="18.55" ry="11.28"/><ellipse cx="83.576" cy="240.609" rx="18.55" ry="11.28"/></g><path d="m101.53 45.392h-35.072c-21.789 0-39.452 17.663-39.452 39.452v53.428c0 10.863 8.806 19.669 19.669 19.669h24.656c32.478 0 58.807-26.329 58.807-58.807v-25.134c0-15.8-12.808-28.608-28.608-28.608z" fill="#aa7a63"/><path d="m101.317 45.386c-21.786 0-39.449 17.664-39.449 39.457v73.095h-15.193c-10.863 0-19.669-8.806-19.669-19.669v-53.425c0-21.794 17.664-39.457 39.449-39.457h34.862z" fill="#986b54"/><path d="m219.275 148.333h-54.614c-29.569 0-53.539-23.97-53.539-53.539v-33.753c0-29.569 23.97-53.539 53.539-53.539h159.824v35.621c.001 58.106-47.104 105.21-105.21 105.21z" fill="#aa7a63"/><path d="m211.871 148.33h-47.211c-29.573 0-53.538-23.965-53.538-53.538v-33.751c0-29.573 23.965-53.538 53.538-53.538h47.212c-29.573 0-53.537 23.965-53.537 53.538v33.752c-.001 29.572 23.964 53.537 53.536 53.537z" fill="#986b54"/><path d="m169.537 415.326c10.287 22.646 10.287 60.91 10.287 60.91s-4.586 15.498-21.493 28.264h.002c-16.907-12.766-21.493-28.264-21.493-28.264s0-38.264 10.287-60.91" fill="#dd636e"/></g><g><path d="m380.79 400.55c8.12 2.17 17.52 5.05 27.42 8.76 11.95 4.47 24.62 10.17 36.62 17.36 6.3 3.78 10.57 10.2 11.68 17.46 1.94 12.79 5.11 35.34 7.45 60.37h-220.58c2.34-25.03 5.51-47.58 7.45-60.37 1.11-7.26 5.38-13.68 11.68-17.46 12-7.19 24.67-12.89 36.62-17.36 9.9-3.71 19.3-6.59 27.42-8.76" fill="#9dc6fb"/><path d="m373.09 504.5h-38.84c1.46-10.91 3.95-22.98 8.21-32.36h22.41c4.26 9.38 6.76 21.45 8.22 32.36z" fill="#dd636e"/><path d="m326.537 453.285 15.925 18.854h11.205 11.204l15.925-18.854v-39.717h-62.859" fill="#dd636e"/><path d="m282.2 416.34c-4.87 4.09-8.18 10.96-9.04 18.72-1.6 14.53-4.27 40.73-6.12 69.44h-23.66c2.34-25.03 5.51-47.58 7.45-60.37 1.11-7.26 5.38-13.68 11.68-17.46 6.44-3.86 13.08-7.29 19.69-10.33z" fill="#80b4fb"/><path d="m408.207 409.313-18.81 52.24-35.73-34.35-35.73 34.35-18.81-52.24c22.08-8.29 41.71-12.38 50.15-13.9 2.91-.53 5.87-.53 8.78 0 8.44 1.52 28.07 5.61 50.15 13.9z" fill="#80b4fb"/><path d="m380.793 354.776v45.302c0 14.978-12.146 27.124-27.124 27.124-14.986 0-27.132-12.146-27.132-27.124v-45.302z" fill="#c38959"/><g fill="#b17a4a"><path d="m362.527 425.722c-2.775.955-5.755 1.477-8.856 1.477-14.986 0-27.132-12.146-27.132-27.124v-45.302h17.713v45.302c-.001 11.885 7.64 21.982 18.275 25.647z"/><path d="m240.343 317.054c-19.558 0-35.414-15.855-35.414-35.414 0-2.692.3-5.313.869-7.833 4.594-20.346 34.544-17.009 34.544 3.849h226.648c0-20.859 29.95-24.196 34.544-3.849.569 2.52.869 5.141.869 7.833 0 19.558-15.855 35.414-35.414 35.414"/><path d="m326.537 354.776h54.256v41.735h-54.256z"/></g><path d="m384.394 382.15h-61.454c-45.617 0-82.596-36.98-82.596-82.596v-116.49l113.326-69.668 113.32 69.668v116.49c0 45.617-36.98 82.596-82.596 82.596z" fill="#c38959"/><path d="m466.996 143.201v48.594s-16.522-27.198-42.67-27.198c-26.137 0-36.779 32.299-70.657 32.299-33.867 0-44.52-32.299-70.657-32.299s-42.67 27.198-42.67 27.198v-48.594c0-31.147 25.257-56.393 56.404-56.393h113.846c31.147 0 56.404 25.246 56.404 56.393z" fill="#365e7d"/><path d="m296.746 86.808h54.542c-31.147 0-56.404 25.245-56.404 56.393v23.756c-3.645-1.478-7.55-2.359-11.872-2.359-26.137 0-42.67 27.198-42.67 27.198v-48.594c0-31.148 25.257-56.394 56.404-56.394z" fill="#2b4d66"/><path d="m377.19 382.145h-54.249c-45.615 0-82.597-36.982-82.597-82.586v-107.763s16.533-27.198 42.67-27.198c4.209 0 8.024.835 11.59 2.246v132.715c0 45.604 36.971 82.586 82.586 82.586z" fill="#b17a4a"/></g></g><g><path d="m105.195 187.204c-5.907 0-10.714 7.973-10.714 17.772 0 9.8 4.807 17.772 10.714 17.772s10.713-7.973 10.713-17.772-4.805-17.772-10.713-17.772z"/><path d="m211.472 222.749c5.907 0 10.713-7.973 10.713-17.772 0-9.8-4.806-17.772-10.713-17.772s-10.714 7.973-10.714 17.772 4.806 17.772 10.714 17.772z"/><path d="m158.333 279.468c7.744 0 15.024-3.016 20.5-8.491 2.93-2.929 2.93-7.677.001-10.607-2.929-2.928-7.678-2.929-10.606 0-2.644 2.643-6.157 4.098-9.895 4.098s-7.25-1.456-9.893-4.098c-2.93-2.928-7.679-2.929-10.606 0-2.93 2.929-2.93 7.677-.001 10.607 5.476 5.475 12.756 8.491 20.5 8.491z"/><path d="m300.528 279.561c5.907 0 10.714-7.973 10.714-17.772 0-9.8-4.807-17.772-10.714-17.772s-10.713 7.973-10.713 17.772c0 9.8 4.806 17.772 10.713 17.772z"/><path d="m406.805 279.561c5.907 0 10.714-7.973 10.714-17.772 0-9.8-4.807-17.772-10.714-17.772s-10.713 7.973-10.713 17.772c0 9.8 4.805 17.772 10.713 17.772z"/><path d="m471.015 324.359c21.781-2.036 38.888-20.414 38.888-42.719 0-3.2-.354-6.392-1.054-9.485-2.898-12.839-14.054-20.788-27.143-19.329-2.574.287-4.988.924-7.217 1.844v-111.46c0-22.6-12.128-43.741-31.65-55.172-3.573-2.092-8.168-.893-10.262 2.682-2.094 3.574-.893 8.169 2.682 10.262 14.946 8.751 24.23 24.932 24.23 42.228v28.517c-8.407-7.437-20.356-14.629-35.161-14.629-14.853 0-25.172 8.249-35.151 16.226-10.34 8.265-20.106 16.072-35.506 16.072-15.407 0-25.175-7.809-35.517-16.076-6.373-5.095-12.964-10.364-20.792-13.451-4.715-1.865-9.408-2.771-14.349-2.771-14.813 0-26.767 7.199-35.175 14.641v-28.529c0-26.964 21.937-48.9 48.9-48.9h113.72c4.143 0 7.5-3.358 7.5-7.5s-3.357-7.5-7.5-7.5h-84.413c3.939-11.596 5.935-23.723 5.935-36.19v-35.62c0-4.142-3.357-7.5-7.5-7.5h-159.82c-25.688 0-47.704 15.958-56.698 38.474-2.11-.38-4.257-.583-6.435-.583h-35.072c-25.89 0-46.952 21.063-46.952 46.952v53.427c0 11.766 7.522 21.805 18.01 25.572v34.016c-2.23-.921-4.645-1.559-7.22-1.846-13.088-1.458-24.244 6.49-27.143 19.328-.699 3.094-1.054 6.286-1.054 9.486 0 22.306 17.108 40.684 38.891 42.719 10.456 36.454 43.357 63.51 82.719 65.194v5.313c-7.675 2.206-15.24 4.685-22.544 7.421-13.93 5.21-26.663 11.25-37.846 17.95-2.408 1.442-4.623 3.208-6.584 5.247-2.87 2.986-2.776 7.734.21 10.604 1.454 1.398 3.326 2.093 5.196 2.093 1.969 0 3.936-.771 5.408-2.302 1.039-1.081 2.209-2.014 3.478-2.774 8.495-5.09 18.006-9.776 28.326-13.992l16.196 44.979c.861 2.391 2.874 4.184 5.349 4.762.566.132 1.139.197 1.708.197 1.916 0 3.785-.736 5.198-2.094l2.834-2.724 7.824 9.262c-9.005 23.9-9.117 58.021-9.117 59.551 0 .72.104 1.437.309 2.128.149.503 2.705 8.871 10.383 18.636h-42.695c1.513-26.042 9.985-56.675 10.08-57.012 1.113-3.989-1.218-8.126-5.207-9.24s-8.127 1.216-9.24 5.205c-.406 1.455-9.188 33.189-10.653 61.047h-29.74c.577-32.378 4.696-68.439 8.191-93.806.565-4.104-2.303-7.888-6.406-8.454-4.082-.564-7.888 2.302-8.453 6.406-3.832 27.81-8.4 68.314-8.4 103.354 0 4.142 3.357 7.5 7.5 7.5h418.95c2.11 0 4.123-.889 5.545-2.449 1.421-1.56 2.119-3.647 1.923-5.749-2.284-24.431-5.341-46.546-7.504-60.806-1.457-9.528-7.011-17.822-15.239-22.76-11.184-6.701-23.917-12.74-37.843-17.949-7.307-2.738-14.873-5.217-22.548-7.423v-5.306c39.363-1.681 72.265-28.738 82.72-65.195zm-198.724 88.422c-1.391-10.943-2.73-20.185-3.705-26.594-1.456-9.528-7.009-17.823-15.239-22.761-11.184-6.701-23.917-12.741-37.843-17.949-7.304-2.737-14.868-5.216-22.543-7.422v-5.32c12.775-.553 25.318-3.812 36.659-9.538 2.171.561 4.411.948 6.7 1.162 10.455 36.455 43.356 63.513 82.719 65.199v5.308c-7.673 2.205-15.235 4.683-22.537 7.42-8.55 3.197-16.643 6.711-24.211 10.495zm-120.112 10.045h12.308c6.858 18.857 7.718 46.1 7.824 52.179-1.062 2.756-4.912 11.41-13.977 19.742-9.061-8.331-12.914-16.994-13.978-19.746.106-6.091.967-33.324 7.823-52.175zm38.746-31.507-17.548-16.87c8.647-4.188 15.295-11.87 18.11-21.199 3.974 1.183 7.911 2.439 11.786 3.775zm-52.219-58.481h39.255v10.425c0 10.82-8.801 19.623-19.62 19.627-.005 0-.01 0-.015 0-10.819-.004-19.619-8.807-19.619-19.627v-10.425zm88.253-42.778c2.208.225 4.438 2.017 5.887 3.496v5.997c0 3.071.156 6.106.457 9.099-11.994-3.128-20.873-14.052-20.873-27.012 0-2.087.23-4.167.685-6.181 1.874-8.295 9.371-7.89 10.851-7.725 1.384.155 7.92 1.264 8.781 8.331-1.344-.44-2.762-.774-4.268-.927-4.139-.421-7.802 2.582-8.222 6.702-.419 4.12 2.582 7.801 6.702 8.22zm93.554 120c2.815 9.33 9.463 17.013 18.111 21.201l-17.548 16.87-12.349-34.297c3.875-1.335 7.812-2.592 11.786-3.774zm33.159 9.643c-.003 0-.007 0-.01 0-10.821-.003-19.623-8.806-19.623-19.627v-10.426h39.255v10.425c0 10.822-8.802 19.625-19.622 19.628zm-6.166 59.935h12.312c1.76 4.869 3.275 10.731 4.494 17.362h-21.294c1.219-6.677 2.718-12.486 4.488-17.362zm13.883-15h-15.444l-9.14-10.821 16.862-16.211 16.862 16.211zm24.869-16.507-17.548-16.87c8.648-4.189 15.296-11.872 18.111-21.203 3.973 1.183 7.911 2.439 11.787 3.775zm97.111-180.397c1.482-.165 8.977-.57 10.85 7.726.454 2.011.685 4.09.685 6.18 0 12.96-8.878 23.883-20.871 27.012.301-2.993.457-6.028.457-9.099v-5.997c1.562-1.587 4.165-3.687 6.62-3.509 4.112.286 7.713-2.832 8-6.964.286-4.132-2.832-7.714-6.965-8-2.74-.189-5.266.205-7.55.945.879-7.033 7.392-8.14 8.774-8.294zm-200.354-95.636c3.017 0 5.905.562 8.839 1.723 5.735 2.261 11.176 6.611 16.936 11.216 11.352 9.074 24.217 19.36 44.883 19.36 20.658 0 33.522-10.283 44.872-19.355 8.688-6.945 16.191-12.943 25.785-12.943 18.137 0 31.377 16.624 35.16 21.964v105.491c0 41.407-33.687 75.094-75.094 75.094h-61.456c-41.407 0-75.095-33.687-75.095-75.094v-105.478c3.786-5.345 17.028-21.978 35.17-21.978zm-164.393-111.058c0-25.386 20.653-46.04 46.04-46.04h152.32v28.12c0 12.554-2.329 24.704-6.92 36.19h-13.322c-34.115 0-62.072 26.874-63.813 60.564-4.519.63-9.09.956-13.655.956h-54.61c-25.387 0-46.04-20.654-46.04-46.04zm-84.119 23.804c0-17.618 14.334-31.952 31.952-31.952h35.074c.887 0 1.762.073 2.63.18-.342 2.61-.537 5.266-.537 7.968v33.75c0 12.322 3.682 23.795 9.987 33.4-9.521 13.826-25.324 22.247-42.279 22.247h-24.653c-6.713 0-12.174-5.458-12.174-12.166zm-17.406 139.984c0-2.09.23-4.169.685-6.181 1.873-8.296 9.368-7.891 10.85-7.725 1.384.154 7.921 1.263 8.781 8.331-4.523-1.473-9.188-1.356-13.605.426-3.842 1.55-5.699 5.92-4.149 9.761 1.549 3.84 5.92 5.699 9.761 4.149 3.132-1.263 6.332 1.318 8.094 3.146v6.004c0 3.071.156 6.107.457 9.1-11.995-3.127-20.874-14.051-20.874-27.011zm35.416 17.912v-77.303h18.817c20.561 0 39.81-9.583 52.269-25.524 10.85 9.883 25.265 15.917 41.063 15.917h54.61c4.531 0 9.068-.278 13.567-.818v99.657c-2.228-.92-4.64-1.556-7.213-1.843-13.089-1.46-24.244 6.49-27.145 19.331-.698 3.097-1.053 6.288-1.053 9.483 0 12.978 5.799 24.62 14.933 32.496-7.481 2.433-15.358 3.694-23.3 3.694h-61.46c-41.403 0-75.088-33.685-75.088-75.09zm60.88 114.282c3.875-1.336 7.813-2.592 11.787-3.775 2.815 9.33 9.463 17.012 18.11 21.201l-17.548 16.87zm44.94 23.772 16.862 16.211-9.141 10.821h-15.443l-9.14-10.821zm19.874 35.89 7.824-9.262 2.834 2.725c1.832 1.761 4.432 2.475 6.906 1.896s4.487-2.371 5.349-4.762l16.195-44.978c10.318 4.214 19.828 8.9 28.319 13.988 4.384 2.63 7.345 7.063 8.123 12.157 1.131 7.436 2.76 18.748 4.386 32.115-7.943 4.969-13.302 13.107-14.728 22.442-1.959 12.914-4.651 32.294-6.839 53.995h-2.228c-1.465-27.858-10.246-59.591-10.652-61.047-1.114-3.99-5.252-6.32-9.241-5.206s-6.32 5.252-5.206 9.241c.094.336 8.567 30.941 10.079 57.011h-42.694c7.679-9.766 10.235-18.134 10.384-18.636.205-.691.309-1.408.309-2.128-.002-1.53-.114-35.651-9.12-59.551zm73.443 80.316c2.129-20.786 4.707-39.302 6.594-51.737.779-5.098 3.74-9.531 8.12-12.159 8.493-5.089 18.002-9.774 28.32-13.989l16.195 44.979c.861 2.391 2.874 4.183 5.349 4.762.566.132 1.139.197 1.708.197 1.916 0 3.785-.735 5.198-2.094l2.834-2.725 7.824 9.263c-2.471 6.554-4.478 14.422-5.996 23.502h-76.146zm197.445-51.745c1.888 12.442 4.466 30.959 6.595 51.745h-76.147c-1.518-9.071-3.527-16.938-6.004-23.501l7.825-9.265 2.834 2.725c1.832 1.761 4.432 2.475 6.906 1.896 2.475-.579 4.487-2.371 5.349-4.762l16.197-44.981c10.319 4.215 19.829 8.901 28.322 13.989 4.382 2.63 7.344 7.063 8.123 12.154z"/><path d="m353.667 336.281c7.744 0 15.024-3.016 20.5-8.492 2.929-2.929 2.929-7.678-.001-10.607-2.928-2.929-7.677-2.928-10.606 0-2.643 2.643-6.155 4.098-9.893 4.098s-7.251-1.456-9.895-4.098c-2.928-2.929-7.677-2.928-10.606 0-2.929 2.929-2.929 7.678.001 10.607 5.476 5.476 12.756 8.492 20.5 8.492z"/></g></g></svg>