<svg id="Capa_1" enable-background="new 0 0 510.455 510.455" height="512" viewBox="0 0 510.455 510.455" width="512" xmlns="http://www.w3.org/2000/svg"><g><g><path d="m308.818 362.366-14.04-7.04c-.87-.43-1.42-1.32-1.42-2.29l-.56-73.92h-74.7v73.91c0 .98-.55 1.87-1.43 2.3l-14.04 7.04-13.172 24.747 88.663 11.739 36.375-29.241z" fill="#ffbd86"/><path d="m180.195 288.992v79.713c0 12.435-6.906 23.841-17.925 29.605l-30.202 15.797c-3.242 1.695-6.834-1.578-5.447-4.963l4.001-9.762c.306-.746.463-1.545.463-2.352v-118.891c0-14.348 6.58-27.903 17.853-36.779l8.543-6.726 43.147-28.797 1.97 51.257z" fill="#918291"/><g><path d="m343.954 179.272 1.259-1.8c11.763-16.813 18.072-36.836 18.072-57.356v-5.058c.001-59.402-48.155-107.558-107.557-107.558-59.403 0-107.558 48.155-107.558 107.558v5.058c0 20.519 6.309 40.543 18.072 57.356l1.259 1.8 28.598 34.385h126.912z" fill="#918291"/><g fill="#f6a96c"><path d="m165.06 234.633c-13.954 0-25.267-11.312-25.267-25.267 0-13.954 11.312-25.267 25.267-25.267h35.569v50.533h-35.569z"/><path d="m347.395 234.633c13.954 0 25.267-11.312 25.267-25.267 0-13.954-11.312-25.267-25.267-25.267h-40.082v50.533h40.082z"/><path d="m250.142 362.229c0-8.036 5.99-14.809 13.967-15.782 9.823-1.198 22.357-3.211 29.153-5.999l-.465-61.332h-53.487-21.212v73.91c0 .98-.55 1.87-1.43 2.3l-14.04 7.04-13.172 24.747 21.734 2.877 32.832-16.512c3.734-1.878 6.098-5.694 6.115-9.874z"/></g><path d="m340.378 151.516v96.23c0 23.51-9.53 44.8-24.94 60.21s-36.69 24.94-60.21 24.94c-47.03 0-85.15-38.12-85.15-85.15v-96.23c31.04-7.15 58.64-24.87 78.07-50.11l4.33-5.63c1.39-1.81 4.11-1.81 5.5 0l4.33 5.63c19.36 25.16 46.84 42.84 77.76 50.04.2.05.31.07.31.07z" fill="#ffbd86"/><path d="m247.508 125.087 5.027-6.537c1.614-2.102 4.772-2.102 6.386 0l5.027 6.537c19.541 25.395 46.209 44.222 76.43 54.202v-27.773s-.11-.02-.31-.07c-30.92-7.2-58.4-24.88-77.76-50.04l-4.33-5.63c-1.39-1.81-4.11-1.81-5.5 0l-4.33 5.63c-19.43 25.24-47.03 42.96-78.07 50.11v28.102c30.627-9.89 57.668-28.86 77.43-54.531z" fill="#f6a96c"/><path d="m417.188 488.891-1.91-30.895c-1.233-19.911-10.217-38.226-24.547-51.331l-7.75 5.258-61.612-29.09-5.027-16.695-7.523-3.773-2.37 2.84c-26.41 31.64-75.03 31.64-101.44 0l-2.38-2.84-71.69 35.97c-20.79 12.88-34.24 35.12-35.77 59.82l-1.9 30.735c-.471 7.624 5.584 14.065 13.223 14.065h297.475c7.637.001 13.692-6.441 13.221-14.064z" fill="#dfa8d2"/><path d="m127.212 473.998c1.53-24.7 14.98-46.94 35.77-59.82l63.697-31.959c-8.06-3.94-15.481-9.595-21.672-17.012l-2.38-2.84-71.69 35.97c-20.79 12.88-34.24 35.12-35.77 59.82l-1.9 30.735c-.471 7.624 5.584 14.065 13.223 14.065h18.932z" fill="#d691c6"/><g id="XMLID_504_"><g><path d="m373.558 394.836-7.75-3.89-14.651 2.14-53.009 84.906v24.964h67.92c12.1-21.31 19.6-44.92 22-69.31l2.671-26.986c-5.081-4.67-10.851-8.654-17.181-11.824z" fill="#fee97d"/><path d="m338.228 377.116-21.887-10.977s-48.303 97.987-158.863 114.187v22.63h70.1l29.485-9.408 30.632-25.212 55.373-71.631z" fill="#fee97d"/><path d="m365.808 390.946-7.29 20.46c-11.89 35.21-32.69 66.75-60.37 91.55h-70.57c72.2-34.76 110.83-125.75 110.65-125.84z" fill="#fed402"/></g></g><path d="m269.235 225.921v2.478c0 6.505-5.274 11.779-11.779 11.779h-3.456c-6.505 0-11.779-5.274-11.779-11.779v-2.478c0-2.605 2.111-4.716 4.716-4.716h17.582c2.604 0 4.716 2.111 4.716 4.716z" fill="#f6a96c"/></g></g><g><path d="m425.539 502.49-2.777-44.961c-1.823-29.536-19.39-56.127-45.843-69.395l-76.058-38.146v-21.682c11.312-6.407 21.316-15.18 29.169-25.912 2.446-3.343 1.719-8.035-1.624-10.481-3.341-2.447-8.035-1.72-10.481 1.624-14.597 19.948-38.035 31.858-62.697 31.858-42.816 0-77.649-34.833-77.649-77.649v-90.387c30.3-8.328 57.296-26.414 76.511-51.383l1.139-1.479 1.138 1.479c19.208 24.961 46.217 43.056 76.511 51.382v90.388c0 6.585-.825 13.128-2.454 19.446-1.034 4.012 1.38 8.102 5.391 9.135 4.016 1.037 8.101-1.381 9.135-5.391 1.943-7.541 2.929-15.344 2.929-23.19v-5.625c17.845-.26 32.285-14.848 32.285-32.754 0-15.704-11.108-28.855-25.878-32.027 10.802-17.162 16.501-36.83 16.501-57.223v-5.058c0-10.105-1.32-20.154-3.924-29.866-1.073-4.001-5.185-6.376-9.187-5.302-4.001 1.072-6.374 5.186-5.302 9.187 2.264 8.445 3.412 17.187 3.412 25.981v5.058c0 13.043-2.705 25.742-7.908 37.466v-6.064c0-3.49-2.408-6.52-5.809-7.307l-.296-.069c-29.155-6.791-55.266-23.595-73.52-47.315l-4.329-5.626c-2.094-2.719-5.264-4.278-8.696-4.278s-6.603 1.56-8.698 4.281l-4.328 5.624c-18.322 23.808-44.534 40.635-73.808 47.382-3.404.785-5.815 3.815-5.815 7.309v3.704c-4.544-11.062-6.908-22.933-6.908-35.106v-5.058c-.001-55.174 44.885-100.06 100.057-100.06 34.527 0 66.169 17.453 84.644 46.687 2.213 3.501 6.847 4.546 10.347 2.333 3.501-2.213 4.546-6.845 2.333-10.347-21.239-33.609-57.622-53.673-97.324-53.673-63.443 0-115.058 51.615-115.058 115.059v5.058c0 20.475 5.742 40.22 16.631 57.431-14.332 3.494-25.007 16.426-25.007 31.819 0 10.419 4.895 19.709 12.5 25.712l-.494.389c-13.164 10.364-20.713 25.918-20.713 42.672v15.307c0 4.143 3.358 7.5 7.5 7.5s7.5-3.357 7.5-7.5v-15.307c0-12.127 5.465-23.385 14.993-30.887l6.926-5.454c.685.096 1.375.178 2.073.231v5.716c0 15.139 3.651 29.44 10.116 42.073v78.887c0 9.677-5.326 18.474-13.901 22.958l-21.514 11.253.283-.69c.679-1.657 1.023-3.405 1.023-5.196v-71.621c0-4.143-3.358-7.5-7.5-7.5s-7.5 3.357-7.5 7.5v68.793c-20.988 14.472-34.323 37.911-35.903 63.496l-2.767 44.793c-.255 4.135 2.889 7.693 7.023 7.948.157.01.314.015.47.015 3.931 0 7.233-3.061 7.479-7.037l2.767-44.793c.975-15.788 7.42-30.57 17.877-41.983.551.88 1.223 1.702 2.025 2.433 2.172 1.979 4.896 3.002 7.663 3.002 1.804 0 3.626-.435 5.324-1.323l30.202-15.798c10.491-5.487 17.881-15.07 20.686-26.212l14.259-7.092c13.97 15.765 33.892 24.783 55.036 24.783 14.56 0 28.537-4.288 40.399-12.093-5.863 8.178-13.664 17.943-23.486 27.956-21.562 21.98-57.38 49.442-107.659 59.121v-21.448c0-4.143-3.358-7.5-7.5-7.5s-7.5 3.357-7.5 7.5v52.984c0 4.143 3.358 7.5 7.5 7.5s7.5-3.357 7.5-7.5v-16.26c55.776-9.934 95.215-40.184 118.758-64.292 18.612-19.058 30.256-36.998 35.699-46.313l8.99 4.509c-9.774 20.409-45.466 87.377-104.101 115.6-3.732 1.796-5.301 6.278-3.505 10.011 1.292 2.684 3.972 4.249 6.763 4.249 1.091 0 2.199-.239 3.248-.744 38.745-18.648 67.748-52.83 85.254-78.221 9.913-14.375 17.234-27.455 21.631-35.896 1.742-3.346 3.098-6.045 4.165-8.25l14.4 7.222-4.877 14.444c-11.451 33.918-31.6 64.471-58.267 88.356-3.086 2.764-3.347 7.506-.583 10.591 1.481 1.654 3.531 2.496 5.59 2.496 1.781 0 3.569-.631 5.001-1.913 28.592-25.609 50.193-58.367 62.47-94.731l4.204-12.452.372.187c4.571 2.292 8.813 5.075 12.684 8.258l-2.275 23.107c-2.313 23.494-9.397 45.814-21.056 66.342-2.046 3.602-.784 8.18 2.817 10.226 1.17.664 2.442.979 3.697.979 2.61 0 5.147-1.365 6.528-3.797 12.702-22.365 20.42-46.684 22.94-72.28l.938-9.525c6.557 9.872 10.57 21.431 11.322 33.603l2.777 44.962c.245 3.977 3.547 7.038 7.479 7.037.155 0 .313-.005.47-.015 4.137-.261 7.281-3.82 7.025-7.955zm-77.662-310.866c9.573.258 17.285 8.108 17.285 17.742s-7.712 17.484-17.285 17.742zm-185.299 35.315c-8.623-1.214-15.285-8.62-15.285-17.573s6.662-16.359 15.285-17.573zm48.016 101.973v21.059l-22.9 11.391v-50.259c6.633 7.064 14.356 13.091 22.9 17.809zm4.127 35.76 5.289-2.631c3.445-1.713 5.584-5.166 5.584-9.013v-17.494c9.308 3.15 19.275 4.86 29.633 4.86 10.539 0 20.887-1.831 30.634-5.264v17.903c0 3.833 2.129 7.281 5.553 8.997l5.301 2.659c-10.902 10.697-25.536 16.743-40.988 16.743-15.459.001-30.103-6.053-41.006-16.76z"/><path d="m255.228 150.845c4.143 0 7.5-3.357 7.5-7.5v-4.68c0-4.143-3.357-7.5-7.5-7.5-4.142 0-7.5 3.357-7.5 7.5v4.68c0 4.142 3.358 7.5 7.5 7.5z"/><path d="m227.581 168.131h-17.921c-4.204 0-8.272 1.512-11.458 4.256l-6.998 6.031c-3.138 2.705-3.489 7.44-.785 10.578 1.483 1.721 3.578 2.604 5.685 2.604 1.734 0 3.477-.598 4.893-1.818l6.997-6.031c.463-.399 1.055-.619 1.667-.619h17.921c4.142 0 7.5-3.357 7.5-7.5s-3.359-7.501-7.501-7.501z"/><path d="m216.723 211.513c4.142 0 7.5-3.357 7.5-7.5v-4.271c0-4.143-3.358-7.5-7.5-7.5s-7.5 3.357-7.5 7.5v4.271c0 4.142 3.358 7.5 7.5 7.5z"/><path d="m309.459 189.78c1.416 1.222 3.159 1.819 4.894 1.819 2.106 0 4.2-.883 5.684-2.604 2.704-3.138 2.354-7.873-.784-10.577l-6.999-6.033c-3.185-2.744-7.254-4.255-11.457-4.255h-17.922c-4.143 0-7.5 3.357-7.5 7.5s3.357 7.5 7.5 7.5h17.922c.611 0 1.203.22 1.666.618z"/><path d="m293.733 211.513c4.143 0 7.5-3.357 7.5-7.5v-4.271c0-4.143-3.357-7.5-7.5-7.5s-7.5 3.357-7.5 7.5v4.271c0 4.142 3.357 7.5 7.5 7.5z"/><path d="m242.221 213.705c-4.142 0-7.5 3.357-7.5 7.5v7.193c0 10.631 8.648 19.279 19.279 19.279h3.456c10.631 0 19.279-8.648 19.279-19.279v-7.193c0-4.143-3.357-7.5-7.5-7.5s-7.5 3.357-7.5 7.5v7.193c0 2.359-1.92 4.279-4.279 4.279h-3.456c-2.359 0-4.279-1.92-4.279-4.279v-7.193c0-4.142-3.358-7.5-7.5-7.5z"/><path d="m286.479 277.539c1.853-3.705.352-8.21-3.354-10.063l-12.354-6.178c-3.746-1.873-8.202-1.841-11.917.082l-3.626 1.874-3.625-1.874c-3.718-1.923-8.173-1.953-11.918-.081l-12.353 6.177c-3.705 1.853-5.207 6.357-3.354 10.063 1.314 2.628 3.962 4.147 6.714 4.147 1.127 0 2.272-.256 3.348-.794l11.51-5.755 3.642 1.883c3.781 1.953 8.295 1.954 12.075-.001l3.641-1.882 11.51 5.755c3.705 1.856 8.209.352 10.061-3.353z"/><path d="m261.753 283.733-.705.477c-3.45 2.33-7.904 2.327-11.347-.005l-.681-.462c-3.428-2.325-8.091-1.43-10.417 1.998-2.325 3.428-1.43 8.092 1.998 10.416l.684.464c4.28 2.899 9.187 4.35 14.094 4.35 4.896 0 9.792-1.443 14.064-4.329l.703-.475c3.433-2.317 4.338-6.979 2.021-10.413s-6.979-4.338-10.414-2.021z"/></g></g></svg>