<svg id="Capa_1" enable-background="new 0 0 512 512" height="512" viewBox="0 0 512 512" width="512" xmlns="http://www.w3.org/2000/svg"><g><g><path d="m256 332.534c-141.387 0-244.868-162.06-225.264-198.263 43.302-79.964 127.94-134.271 225.264-134.271 97.204 0 181.752 54.173 225.103 133.974 19.704 36.274-83.716 198.56-225.103 198.56z" fill="#9dcb3b"/><path d="m512 256c0 26.051-3.891 51.191-11.129 74.871-5.031 16.469-11.672 32.231-19.75 47.109-8.25 15.2-147.391 42.417-225.121 42.417s-216.871-27.217-225.109-42.417c-3.289-6.031-6.332-12.21-9.121-18.531-14-31.629-21.77-66.629-21.77-103.449 0-46.219 12.25-89.57 33.68-127 44.121 77.07 127.16 129 222.32 129s178.211-51.93 222.32-129c21.43 37.43 33.68 80.781 33.68 127zm0 0" fill="#70ae3e"/><path d="m481.262 377.699c-7.16 13.223-15.434 25.742-24.723 37.43-8.437 10.633-17.719 20.57-27.719 29.723-45.539 41.699-106.211 67.148-172.82 67.148-10.75 0-21.345-.663-31.747-1.95-8.002-.99-35.168-6.816-40.812-8.482-22.333-6.59-43.396-16.145-62.733-28.207-13.387-8.351-40.101-30.889-41.37-32.098-8.544-8.145-16.531-16.876-23.877-26.135-9.289-11.688-17.563-24.207-24.723-37.43h450.524zm0 0" fill="#303a59"/></g><g><path d="m183.538 501.581c13.38 3.942 27.213 6.823 41.407 8.539v-107.453l-41.407 36.231z" fill="#ffa725"/><path d="m360.207 480.304h19.247c19.413-10.707 37.295-23.85 53.214-39.035v-116.239h-83.503z" fill="#ff1a69"/><path d="m360.207 283.623h-135.262l-13.802 77.637 13.802 77.637h103.516l52.448 20.703v-155.274c.001-11.434-9.268-20.703-20.702-20.703z" fill="#ff4377"/><path d="m183.538 283.623h41.407v155.275h-41.407z" fill="#ff1a69"/><path d="m360.207 438.898h-31.745v20.703c0 11.434 9.269 20.703 20.703 20.703h11.042c11.434 0 20.703-9.269 20.703-20.703s-9.269-20.703-20.703-20.703z" fill="#ad2666"/><path d="m79.332 200.81 13.802 77.637-13.802 77.637v85.185c12.637 12.053 26.515 22.813 41.406 32.099v-314.655h-41.406z" fill="#ffd567"/><path d="m244.958 242.217 11.042 155.274h72.461v-155.274z" fill="#2196dc"/><path d="m276.703 221.513c0-11.434-9.269-20.703-20.703-20.703h-31.055l-41.407 77.774 41.407 77.773 51.758 20.431z" fill="#26abff"/><path d="m120.739 200.81-13.803 77.637 13.803 77.638h103.516l.69.272v-155.547z" fill="#4cbeff"/><path d="m79.332 200.81h41.407v155.275h-41.407z" fill="#26abff"/><path d="m256 356.085h-31.745v20.703c0 11.434 9.269 20.703 20.703 20.703h11.042c11.434 0 20.703-9.269 20.703-20.703s-9.269-20.703-20.703-20.703z" fill="#1c81b9"/></g><g fill="#fff"><path d="m193.784 90.965h-1.523c-6.754 0-12.227-5.477-12.227-12.231v-1.523h-8.718v1.523c0 6.754-5.473 12.231-12.227 12.231h-1.523v8.714h1.523c6.754 0 12.227 5.473 12.227 12.227v1.523h8.718v-1.523c0-6.754 5.473-12.227 12.227-12.227h1.523zm0 0"/><path d="m354.434 130.681h-1.523c-6.754 0-12.227-5.477-12.227-12.231v-1.523h-8.718v1.523c0 6.754-5.473 12.231-12.227 12.231h-1.523v8.714h1.523c6.754 0 12.227 5.473 12.227 12.227v1.523h8.718v-1.523c0-6.754 5.473-12.227 12.227-12.227h1.523zm0 0"/><path d="m404.009 214.007h-1.523c-6.754 0-12.227-5.477-12.227-12.231v-1.523h-8.718v1.523c0 6.754-5.473 12.231-12.227 12.231h-1.523v8.714h1.523c6.754 0 12.227 5.473 12.227 12.227v1.523h8.718v-1.523c0-6.754 5.473-12.227 12.227-12.227h1.523zm0 0"/></g></g></svg>