<svg id="Capa_1" enable-background="new 0 0 511.998 511.998" height="512" viewBox="0 0 511.998 511.998" width="512" xmlns="http://www.w3.org/2000/svg"><g><g><g><path d="m493.875 188.086h-475.752l52.882-101.782c1.928-3.71 5.761-6.038 9.942-6.038h350.104c4.181 0 8.014 2.328 9.942 6.038z" fill="#f82f40"/><path d="m493.879 188.08h-43.437l-52.883-101.775c-1.927-3.708-5.759-6.039-9.938-6.039h43.426c4.179 0 8.022 2.33 9.949 6.039z" fill="#e22334"/><path d="m481.169 498.596h-450.34c-6.188 0-11.204-5.016-11.204-11.204v-286.718h472.747v286.719c.001 6.187-5.016 11.203-11.203 11.203z" fill="#f2eff2"/><path d="m19.625 200.674v46.258h409.016c15.132 0 27.398 12.267 27.398 27.398v224.266h25.129c6.188 0 11.204-5.016 11.204-11.204v-286.718z" fill="#e1dde1"/><path d="m239.193 281.852h215.786v216.745h-215.786z" fill="#8dcafc"/><path d="m305.988 281.852h-66.795v66.668c22.245-22.243 44.495-44.481 66.795-66.668z" fill="#b5dbfd"/><path d="m239.19 281.854h215.79v33.42h-215.79z" fill="#64b9fc"/><path d="m305.99 281.854c-11.19 11.13-22.36 22.27-33.53 33.42h-33.27v-33.42z" fill="#8dcafc"/><path d="m432.92 337.155c-53.814 53.814-107.627 107.627-161.441 161.441h42.456c2.744-2.731 5.5-5.449 8.242-8.181 44.305-44.142 88.44-88.454 132.802-132.539v-42.779z" fill="#b5dbfd"/><path d="m341.319 498.596h113.66v-113.66z" fill="#b5dbfd"/><g><path d="m63.072 281.852h132.37v216.745h-132.37z" fill="#8dcafc"/><g fill="#b5dbfd"><path d="m181.635 337.749c-39.456 39.546-79.006 78.996-118.563 118.44v30.644c44.05-43.999 88.153-87.945 132.37-131.776v-31.188c-4.606 4.623-9.197 9.26-13.807 13.88z"/><path d="m195.442 378.92c-39.892 39.892-79.784 79.784-119.676 119.676"/><path d="m75.766 498.596h119.676v-119.676c-39.892 39.892-79.784 79.784-119.676 119.676z"/></g></g><g><path d="m493.294 219.208h-474.59c-6.188 0-11.204-5.016-11.204-11.204v-16.731c0-6.188 5.016-11.204 11.204-11.204h474.59c6.188 0 11.204 5.016 11.204 11.204v16.731c0 6.188-5.016 11.204-11.204 11.204z" fill="#fb4a59"/><path d="m504.5 191.273v16.727c0 6.196-5.019 11.204-11.204 11.204h-38.317c6.185 0 11.204-5.008 11.204-11.204v-16.727c0-6.185-5.019-11.204-11.204-11.204h38.317c6.185 0 11.204 5.02 11.204 11.204z" fill="#f82f40"/></g><g><path d="m341.674 426.202h-58.798c-2.989 0-5.412-2.423-5.412-5.412v-82.53c0-2.989 2.423-5.412 5.412-5.412h58.798c2.989 0 5.412 2.423 5.412 5.412v82.529c0 2.989-2.423 5.413-5.412 5.413z" fill="#f2eff2"/><path d="m347.086 338.256v82.527c0 2.991-2.42 5.423-5.412 5.423h-23.819c2.991 0 5.411-2.431 5.411-5.423v-82.527c0-2.98-2.42-5.411-5.411-5.411h23.819c2.992 0 5.412 2.431 5.412 5.411z" fill="#e1dde1"/><path d="m347.086 348.922v71.861c0 2.991-2.42 5.423-5.412 5.423h-58.798c-2.991 0-5.411-2.431-5.411-5.423 0-1.434.571-2.812 1.58-3.821 14.744-14.733 29.488-29.477 44.221-44.221z" fill="#fb4a59"/><path d="m347.086 348.922v71.861c0 2.991-2.42 5.423-5.412 5.423h-23.819c2.991 0 5.411-2.431 5.411-5.423v-48.042z" fill="#f82f40"/></g><g><path d="m455.123 294.807h-216.073c-3.094 0-5.602-2.508-5.602-5.602v-18.469c0-3.094 2.508-5.602 5.602-5.602h216.073c3.094 0 5.602 2.508 5.602 5.602v18.469c-.001 3.094-2.509 5.602-5.602 5.602z" fill="#fb4a59"/><path d="m460.727 270.742v18.464c0 3.092-2.51 5.602-5.602 5.602h-26.531c3.092 0 5.602-2.51 5.602-5.602v-18.464c0-3.103-2.51-5.602-5.602-5.602h26.531c3.092 0 5.602 2.499 5.602 5.602z" fill="#f82f40"/></g></g><g><path d="m499.038 498.596h-99.268v-138.771c0-12.852 10.419-23.271 23.271-23.271h52.726c12.852 0 23.271 10.419 23.271 23.271z" fill="#f82f40"/><path d="m499.039 359.825v138.771h-26.62v-138.771c0-12.851-10.42-23.27-23.27-23.27h26.62c12.851 0 23.27 10.419 23.27 23.27z" fill="#e22334"/><path d="m499.039 359.825v31.404h-99.271v-31.404c0-12.851 10.42-23.27 23.282-23.27h52.719c12.851 0 23.27 10.419 23.27 23.27z" fill="#fb4a59"/><path d="m499.039 359.825v31.404h-26.62v-31.404c0-12.851-10.42-23.27-23.27-23.27h26.62c12.851 0 23.27 10.419 23.27 23.27z" fill="#f82f40"/><path d="m472.429 391.232v-16.794c0-5.26-4.264-9.524-9.524-9.524h-26.997c-5.26 0-9.524 4.264-9.524 9.524v16.794z" fill="#685e67"/></g></g><g><g><g><path d="m378.459 19.065v155.33c0 1.432-.529 2.733-1.399 3.736-1.036 1.179-2.568 1.939-4.264 1.939h-233.59c-1.697 0-3.229-.76-4.265-1.939-.871-1.003-1.399-2.303-1.399-3.736v-155.33c0-1.675.727-3.173 1.884-4.209 1.003-.904 2.325-1.455 3.78-1.455h233.59c1.454 0 2.777.551 3.78 1.455 1.156 1.035 1.883 2.534 1.883 4.209z" fill="#64b9fc"/><path d="m376.575 14.855c-1.003-.904-2.325-1.455-3.78-1.455h-233.59c-1.455 0-2.777.551-3.78 1.455-1.157 1.036-1.884 2.535-1.884 4.209v21.83l102.58 76.067c5.796 4.287 12.672 6.557 19.879 6.557s14.083-2.27 19.879-6.557l52.123-38.651c7.1-5.265 17.168-.197 17.168 8.642v87.442c0 1.432-.529 2.733-1.4 3.736-1.036 1.179-2.567 1.939-4.264 1.939h33.29c1.697 0 3.229-.76 4.264-1.939.871-1.003 1.399-2.303 1.399-3.736v-155.329c0-1.675-.727-3.174-1.884-4.21z" fill="#31a7fb"/><path d="m377.061 178.123c-1.037 1.19-2.567 1.944-4.267 1.944h-233.588c-1.7 0-3.23-.754-4.267-1.944l121.061-107.2z" fill="#31a7fb"/><path d="m293.356 104.003-17.477 12.959c-5.796 4.287-12.672 6.557-19.879 6.557s-14.083-2.27-19.879-6.557l-17.477-12.959 37.356-33.081z" fill="#1c96f9"/><path d="m376.573 14.852-113.823 84.402c-4.009 2.973-9.491 2.973-13.501 0l-113.822-84.402c1.003-.901 2.329-1.451 3.78-1.451h233.587c1.45.001 2.776.55 3.779 1.451z" fill="#c4e1ff"/></g></g><g><path d="m511.998 208.004v-16.73c0-9.98-7.864-18.136-17.717-18.654l-46.63-89.758c-3.222-6.226-9.583-10.093-16.602-10.093h-45.09v-53.7c0-3.703-1.575-7.245-4.317-9.737-.02-.018-.036-.039-.056-.056-.001-.001-.002-.001-.003-.002s-.003-.003-.004-.004c-.024-.021-.05-.039-.074-.06-2.409-2.13-5.497-3.306-8.712-3.306h-233.587c-3.214 0-6.301 1.175-8.709 3.304-.025.022-.052.04-.077.062-.001.001-.003.003-.004.004s-.002.001-.003.002c-.02.018-.037.039-.057.057-2.743 2.493-4.317 6.034-4.317 9.737v53.7h-45.089c-7.007 0-13.369 3.862-16.605 10.083l-46.636 89.767c-9.85.522-17.709 8.676-17.709 18.654v16.73c0 7.996 5.053 14.816 12.125 17.487v261.901c0 10.313 8.39 18.704 18.704 18.704l468.212-.001c4.143 0 7.5-3.358 7.5-7.5v-138.771c0-7.211-2.5-13.845-6.669-19.096v-115.237c7.073-2.67 12.126-9.491 12.126-17.487zm-80.948-120.235c1.389 0 2.646.761 3.285 1.998l43.017 82.804h-91.392v-84.802zm-290.01 74.934v-134.351l82.575 61.231zm94.889-63.989 8.853 6.565c3.355 2.488 7.286 3.732 11.218 3.732 3.931 0 7.863-1.244 11.217-3.732l8.854-6.565 83.402 73.854h-206.946zm52.456-9.132 82.575-61.231v134.352zm67.438-68.68-97.541 72.328c-1.366 1.012-3.2 1.011-4.565 0l-97.54-72.328zm-278.17 68.868c.643-1.234 1.906-2.001 3.297-2.001h45.089v84.801h-91.401zm-50.528 397.623v-260.685h315.865c4.143 0 7.5-3.358 7.5-7.5s-3.357-7.5-7.5-7.5h-324.286c-2.042 0-3.704-1.662-3.704-3.704v-16.73c0-2.042 1.662-3.704 3.704-3.704h474.59c2.042 0 3.704 1.662 3.704 3.704v16.73c0 2.042-1.662 3.704-3.704 3.704h-114.908c-4.143 0-7.5 3.358-7.5 7.5s3.357 7.5 7.5 7.5h106.486v103.72c-2.878-.893-5.935-1.375-9.103-1.375h-13.291v-29.013c3.465-2.36 5.746-6.335 5.746-10.834v-18.469c0-7.225-5.878-13.102-13.103-13.102h-216.071c-7.225 0-13.102 5.877-13.102 13.102v18.469c0 4.499 2.281 8.474 5.746 10.834v191.057h-28.751v-209.245c0-4.142-3.358-7.5-7.5-7.5h-132.371c-4.142 0-7.5 3.358-7.5 7.5v40.803c0 4.142 3.358 7.5 7.5 7.5s7.5-3.358 7.5-7.5v-33.303h117.371v201.745h-117.371v-133.047c0-4.142-3.358-7.5-7.5-7.5s-7.5 3.358-7.5 7.5v133.046h-24.743c-2.042 0-3.704-1.661-3.704-3.703zm437.804-103.661h-31.044v-9.294c0-1.116.907-2.023 2.023-2.023h26.997c1.116 0 2.023.908 2.023 2.023v9.294zm-2.024-26.317h-26.997c-9.387 0-17.023 7.637-17.023 17.023v9.294h-11.611v-23.908c0-8.696 7.074-15.771 15.771-15.771h52.726c8.696 0 15.771 7.075 15.771 15.771v23.908h-11.612v-9.294c-.001-9.387-7.638-17.023-17.025-17.023zm-221.957-70.108v-14.673h212.277v14.673zm166.325 203.788v-35.918c0-4.142-3.357-7.5-7.5-7.5s-7.5 3.358-7.5 7.5v35.919h-145.58v-188.789h200.785v26.746h-24.435c-16.967 0-30.771 13.804-30.771 30.771v59.958c0 4.142 3.357 7.5 7.5 7.5s7.5-3.358 7.5-7.5v-21.05h84.268v92.363z"/><path d="m341.674 325.348h-58.798c-7.12 0-12.913 5.792-12.913 12.913v82.529c0 7.12 5.793 12.913 12.913 12.913h58.798c7.12 0 12.912-5.792 12.912-12.913v-82.53c0-7.12-5.792-12.912-12.912-12.912zm-2.088 15v5.47l-54.623 54.621v-60.091zm-51.672 78.354 51.672-51.67v51.67z"/><path d="m170.486 407.793c4.142 0 7.5-3.358 7.5-7.5v-20.139c0-4.142-3.358-7.5-7.5-7.5s-7.5 3.358-7.5 7.5v20.139c0 4.143 3.358 7.5 7.5 7.5z"/><path d="m462.272 457.045h-25.731c-4.143 0-7.5 3.358-7.5 7.5s3.357 7.5 7.5 7.5h25.731c4.143 0 7.5-3.358 7.5-7.5s-3.357-7.5-7.5-7.5z"/><path d="m269.449 138.485h-26.899c-4.142 0-7.5 3.358-7.5 7.5s3.358 7.5 7.5 7.5h26.899c4.143 0 7.5-3.358 7.5-7.5s-3.357-7.5-7.5-7.5z"/></g></g></g></svg>