<svg id="Capa_1" enable-background="new 0 0 512 512" height="512" viewBox="0 0 512 512" width="512" xmlns="http://www.w3.org/2000/svg"><g><g><path d="m283.787 118.675c-4.268 0-7.726-3.459-7.726-7.726v-48.875c0-8.035-6.537-14.572-14.573-14.572h-104.899c-8.036 0-14.573 6.537-14.573 14.572v48.875c0 4.268-3.459 7.726-7.726 7.726-4.268 0-7.726-3.459-7.726-7.726v-48.875c0-16.556 13.47-30.025 30.026-30.025h104.898c16.556 0 30.026 13.469 30.026 30.025v48.875c0 4.267-3.459 7.726-7.727 7.726z" fill="#2b4d66"/></g><path d="m390.857 351.425h-334.246c-16.232 0-29.391-13.159-29.391-29.391v-172.081h363.637z" fill="#664545"/><path d="m27.22 238.588c4.807 4.932 11.49 7.936 18.759 7.936h344.878v-96.571h-363.637z" fill="#523838"/><path d="m393.395 90.345h-368.712c-15.886 0-27.631 14.794-24.029 30.266l19.799 85.043c2.763 11.868 13.341 20.266 25.527 20.266h346.927l24.517-105.31c3.602-15.471-8.144-30.265-24.029-30.265z" fill="#8b5e5e"/><path d="m393.395 90.345h-26.27c15.886 0 27.631 14.794 24.029 30.266l-24.517 105.31h26.27l24.517-105.31c3.602-15.472-8.144-30.266-24.029-30.266z" fill="#785252"/><circle cx="374.915" cy="342.866" fill="#5766cb" r="137.085"/><path d="m374.915 205.781c-3.634 0-7.235.144-10.798.422 70.662 5.506 126.287 64.587 126.287 136.663s-55.625 131.157-126.287 136.664c3.563.278 7.163.422 10.798.422 75.71 0 137.085-61.375 137.085-137.085s-61.375-137.086-137.085-137.086z" fill="#3d4fc3"/><circle cx="374.915" cy="342.866" fill="#f4fbff" r="102.251"/><path d="m374.915 240.616c-4.738 0-9.398.329-13.965.953 49.864 6.811 88.286 49.564 88.286 101.297s-38.422 94.487-88.286 101.298c4.567.624 9.227.953 13.965.953 56.471 0 102.251-45.779 102.251-102.251-.001-56.471-45.78-102.25-102.251-102.25z" fill="#daf1f4"/><g><g><path d="m374.915 279.81c-4.268 0-7.726-3.459-7.726-7.726v-3.538c0-4.268 3.459-7.726 7.726-7.726s7.726 3.459 7.726 7.726v3.538c0 4.267-3.458 7.726-7.726 7.726z" fill="#365e7d"/></g><g><path d="m424.965 300.542c-1.977 0-3.955-.755-5.464-2.263-3.017-3.018-3.017-7.909 0-10.928l2.503-2.503c3.018-3.016 7.909-3.016 10.928 0 3.017 3.018 3.017 7.909 0 10.928l-2.503 2.503c-1.509 1.509-3.487 2.263-5.464 2.263z" fill="#365e7d"/></g><g><path d="m449.236 350.593h-3.539c-4.268 0-7.726-3.459-7.726-7.726s3.459-7.726 7.726-7.726h3.539c4.268 0 7.726 3.459 7.726 7.726s-3.458 7.726-7.726 7.726z" fill="#365e7d"/></g><g><path d="m304.132 350.593h-3.539c-4.268 0-7.726-3.459-7.726-7.726s3.459-7.726 7.726-7.726h3.539c4.268 0 7.726 3.459 7.726 7.726s-3.458 7.726-7.726 7.726z" fill="#365e7d"/></g><g><path d="m427.468 403.146c-1.977 0-3.954-.754-5.462-2.262l-2.503-2.502c-3.018-3.017-3.019-7.909-.003-10.927 3.017-3.02 7.909-3.02 10.927-.003l2.503 2.502c3.018 3.017 3.019 7.909.003 10.927-1.509 1.51-3.487 2.265-5.465 2.265z" fill="#365e7d"/></g><g><path d="m374.915 424.915c-4.268 0-7.726-3.459-7.726-7.726v-3.539c0-4.268 3.459-7.726 7.726-7.726s7.726 3.459 7.726 7.726v3.539c0 4.267-3.458 7.726-7.726 7.726z" fill="#365e7d"/></g><g><path d="m322.362 403.146c-1.977 0-3.955-.755-5.464-2.263-3.017-3.018-3.017-7.909 0-10.928l2.502-2.502c3.018-3.016 7.909-3.016 10.928 0 3.017 3.018 3.017 7.909 0 10.928l-2.502 2.502c-1.509 1.508-3.487 2.263-5.464 2.263z" fill="#365e7d"/></g><g><path d="m324.864 300.542c-1.978 0-3.956-.755-5.465-2.265l-2.502-2.503c-3.016-3.017-3.015-7.909.003-10.927 3.016-3.014 7.908-3.017 10.927.003l2.502 2.503c3.016 3.017 3.015 7.909-.003 10.927-1.508 1.508-3.485 2.262-5.462 2.262z" fill="#365e7d"/></g></g><g><path d="m395.974 350.593h-21.059c-4.268 0-7.726-3.459-7.726-7.726v-40.779c0-4.268 3.459-7.726 7.726-7.726s7.726 3.459 7.726 7.726v33.052h13.333c4.268 0 7.726 3.459 7.726 7.726s-3.458 7.727-7.726 7.727z" fill="#2b4d66"/></g><path d="m230.409 253.977h-42.741c-6.328 0-11.459-5.13-11.459-11.459v-33.285c0-6.328 5.13-11.459 11.459-11.459h42.741c6.328 0 11.459 5.13 11.459 11.459v33.285c0 6.329-5.131 11.459-11.459 11.459z" fill="#eab14d"/><path d="m230.409 197.774h-19.645c6.328 0 11.459 5.13 11.459 11.459v33.285c0 6.328-5.13 11.459-11.459 11.459h19.645c6.328 0 11.459-5.13 11.459-11.459v-33.285c0-6.328-5.131-11.459-11.459-11.459z" fill="#e49542"/></g></svg>