<svg id="Capa_1" enable-background="new 0 0 512 512" height="512" viewBox="0 0 512 512" width="512" xmlns="http://www.w3.org/2000/svg"><g><g clip-rule="evenodd" fill-rule="evenodd"><path d="m256 512c140.997 0 256-115.003 256-256s-115.003-256-256-256-256 115.003-256 256 115.003 256 256 256z" fill="#e4f6ff"/><path d="m256 0c141.395 0 256 114.605 256 256s-114.605 256-256 256c-5.018 0-10.035-.142-14.995-.454 134.392-7.767 241.004-119.197 241.004-255.546s-106.612-247.779-241.004-255.546c4.96-.283 9.977-.454 14.995-.454z" fill="#d3effb"/><path d="m381.065 345.435c18.795 0 34.017 15.222 34.017 33.986 0 18.795-15.222 34.018-34.017 34.018-18.766 0-33.987-15.223-33.987-34.018 0-18.765 15.222-33.986 33.987-33.986zm-69.306-297.103c18.765 0 33.987 15.222 33.987 33.987 0 18.794-15.223 34.016-33.987 34.016-18.795 0-34.017-15.222-34.017-34.016 0-18.765 15.222-33.987 34.017-33.987zm-242.763 162.624c18.766 0 33.988 15.224 33.988 33.989 0 18.793-15.223 34.016-33.988 34.016-18.793 0-34.017-15.223-34.017-34.016 0-18.765 15.224-33.989 34.017-33.989zm122.997 186.041c18.793 0 34.017 15.222 34.017 34.016 0 18.766-15.224 33.987-34.017 33.987-18.766 0-33.988-15.222-33.988-33.987 0-18.794 15.222-34.016 33.988-34.016z" fill="#aadca5"/><path d="m381.065 345.435c18.795 0 34.017 15.222 34.017 33.986 0 18.795-15.222 34.018-34.017 34.018-5.386 0-10.46-1.276-14.995-3.487 11.254-5.556 18.993-17.121 18.993-30.53 0-13.379-7.739-24.973-18.993-30.528 4.535-2.213 9.61-3.459 14.995-3.459zm-69.306-297.103c18.765 0 33.987 15.222 33.987 33.987 0 18.794-15.223 34.016-33.987 34.016-5.386 0-10.488-1.275-14.997-3.486 11.255-5.556 18.993-17.122 18.993-30.529 0-13.38-7.738-24.974-18.993-30.501 4.509-2.24 9.611-3.487 14.997-3.487zm-242.763 162.624c18.766 0 33.988 15.224 33.988 33.989 0 18.793-15.223 34.016-33.988 34.016-5.386 0-10.488-1.248-15.023-3.486 11.254-5.557 19.021-17.122 19.021-30.529 0-13.38-7.767-24.974-19.021-30.501 4.535-2.241 9.637-3.489 15.023-3.489zm122.997 186.041c18.793 0 34.017 15.222 34.017 34.016 0 18.766-15.224 33.987-34.017 33.987-5.387 0-10.46-1.247-14.996-3.486 11.254-5.527 19.02-17.121 19.02-30.501 0-13.407-7.767-24.973-19.02-30.528 4.536-2.213 9.609-3.488 14.996-3.488z" fill="#87cda0"/><path d="m381.065 147.092c47.17 0 85.381 39.571 85.381 85.381 0 45.808-50.23 96.832-80.136 128.099-3.486 3.628-6.747 3.826-10.461 0-30.104-31.068-80.164-82.291-80.164-128.099 0-45.81 38.241-85.381 85.38-85.381z" fill="#e28086"/><path d="m381.065 147.092c47.17 0 85.381 39.571 85.381 85.381 0 45.808-50.23 96.832-80.136 128.099-3.486 3.628-6.747 3.826-10.461 0-3.09-3.203-6.406-6.605-9.808-10.177 29.906-31.436 70.413-76.791 70.413-117.922 0-40.82-30.387-76.707-70.385-84.021 4.877-.879 9.894-1.36 14.996-1.36z" fill="#dd636e"/><path d="m381.065 275.417c23.671 0 42.946-19.275 42.946-42.944 0-23.642-19.275-42.946-42.946-42.946-23.641 0-42.945 19.305-42.945 42.946 0 23.669 19.305 42.944 42.945 42.944z" fill="#ffe07d"/><path d="m381.065 189.526c23.728 0 42.946 19.248 42.946 42.946 0 23.726-19.219 42.944-42.946 42.944-5.272 0-10.318-.935-14.995-2.692 16.328-6.095 27.95-21.799 27.95-40.252 0-18.426-11.622-34.159-27.95-40.253 4.677-1.729 9.723-2.693 14.995-2.693z" fill="#ffc269"/></g><path d="m318.08 391.272c3.997-1.077 8.106 1.304 9.184 5.301 1.049 3.996-1.304 8.107-5.301 9.156l-18.396 4.988c-3.997 1.077-8.108-1.304-9.186-5.301-1.077-3.997 1.305-8.107 5.302-9.156zm-65.368-282.96c3.401-2.324 8.05-1.474 10.375 1.928 2.324 3.402 1.445 8.051-1.928 10.375l-15.704 10.801c-3.401 2.325-8.051 1.475-10.375-1.927-2.353-3.403-1.474-8.052 1.928-10.376zm-40.423 27.782c3.374-2.325 8.022-1.446 10.375 1.956 2.325 3.373 1.446 8.021-1.955 10.346l-15.705 10.801c-3.401 2.324-8.023 1.474-10.375-1.928-2.324-3.402-1.445-8.051 1.956-10.375zm-40.45 27.779c3.401-2.324 8.05-1.446 10.374 1.956 2.325 3.401 1.475 8.021-1.927 10.375l-15.704 10.771c-3.401 2.352-8.051 1.474-10.375-1.928-2.324-3.401-1.446-8.051 1.928-10.375zm-40.423 27.808c3.402-2.353 8.051-1.474 10.375 1.928s1.474 8.051-1.928 10.375l-15.705 10.801c-3.401 2.324-8.05 1.446-10.374-1.956-2.325-3.402-1.475-8.022 1.927-10.376zm197.606 152.421c3.827 1.588 5.641 5.981 4.054 9.78-1.588 3.826-5.981 5.641-9.779 4.053l-17.575-7.37c-3.827-1.587-5.641-5.952-4.054-9.779 1.588-3.827 5.953-5.612 9.779-4.054zm-45.243-18.964c3.827 1.588 5.642 5.981 4.054 9.809-1.587 3.798-5.981 5.612-9.808 4.024l-17.575-7.37c-3.798-1.587-5.612-5.952-4.024-9.779 1.587-3.826 5.952-5.612 9.779-4.025zm-45.24-18.963c3.826 1.587 5.612 5.98 4.053 9.807-1.587 3.799-5.98 5.613-9.808 4.025l-17.575-7.369c-3.799-1.56-5.613-5.953-4.025-9.78 1.588-3.799 5.953-5.613 9.78-4.025zm-45.242-18.937c3.826 1.559 5.612 5.952 4.025 9.779-1.56 3.799-5.953 5.613-9.78 4.026l-17.574-7.343c-3.799-1.588-5.613-5.982-4.025-9.809 1.588-3.798 5.953-5.612 9.779-4.025zm-45.241-18.965c3.799 1.588 5.612 5.953 4.025 9.78-1.588 3.827-5.953 5.612-9.779 4.024l-17.576-7.341c-3.827-1.588-5.612-5.981-4.025-9.808 1.56-3.799 5.954-5.613 9.781-4.025zm122.684 135.811c3.997-1.077 8.078 1.304 9.156 5.301 1.077 3.996-1.305 8.107-5.301 9.184l-18.397 4.961c-3.997 1.077-8.106-1.304-9.155-5.301-1.078-3.996 1.304-8.107 5.301-9.156z" fill="#2b4d66"/></g></svg>