<svg id="Capa_1" enable-background="new 0 0 512 512" height="512" viewBox="0 0 512 512" width="512" xmlns="http://www.w3.org/2000/svg"><g><path d="m190.044 203.702h-1.863l2.816-38.232h10.115c7.113 0 12.878 5.766 12.878 12.878v1.409c0 13.224-10.721 23.945-23.946 23.945z" fill="#eaac9d"/><path d="m73.456 203.702h1.863l-2.816-38.232h-10.115c-7.112 0-12.878 5.766-12.878 12.878v1.409c0 13.224 10.721 23.945 23.946 23.945z" fill="#ffcbbe"/><path d="m132.556 310.332c22.754 0 41.977-15.112 48.183-35.846h-13.169c-2.854 0-5.168-2.314-5.168-5.168v-20.818c-10.746 7.351-22.612 11.56-30.652 11.56s-19.906-4.209-30.652-11.56v20.818c0 2.854-2.314 5.168-5.168 5.168h-11.557c6.206 20.735 25.43 35.846 48.183 35.846z" fill="#eaac9d"/><path d="m438.544 203.702h-1.863l2.816-38.232h10.115c7.113 0 12.878 5.766 12.878 12.878v1.409c0 13.224-10.721 23.945-23.946 23.945z" fill="#eaac9d"/><path d="m321.956 203.702h1.863l-2.816-38.232h-10.115c-7.112 0-12.878 5.766-12.878 12.878v1.409c0 13.224 10.721 23.945 23.946 23.945z" fill="#ffcbbe"/><path d="m381.056 310.332c22.754 0 41.977-15.112 48.183-35.846h-13.169c-2.854 0-5.168-2.314-5.168-5.168v-20.818c-10.746 7.351-22.612 11.56-30.652 11.56s-19.906-4.209-30.652-11.56v20.818c0 2.854-2.314 5.168-5.168 5.168h-11.556c6.205 20.735 25.429 35.846 48.182 35.846z" fill="#eaac9d"/><path d="m339.076 146.124 1.598-4.032c4.456-11.243 18.74-14.622 27.76-6.567l7.649 6.83c2.374 2.12 5.961 2.12 8.335 0l7.649-6.83c9.021-8.055 23.305-4.676 27.76 6.567l1.598 4.032c3.854 9.726 9.659 18.56 17.057 25.957l.493.493c.494-6.702.953-12.945 1.302-17.684 2.569-34.885-25.041-64.609-60.026-64.609-34.983 0-62.595 29.721-60.026 64.609.301 4.092.767 10.412 1.302 17.684l.493-.493c7.397-7.398 13.201-16.232 17.056-25.957z" fill="#ffc250"/><path d="m438.481 172.081c-7.398-7.398-13.202-16.231-17.057-25.957l-1.598-4.032c-4.456-11.243-18.74-14.622-27.76-6.567l-7.649 6.83c-2.374 2.12-5.961 2.12-8.335 0l-7.649-6.83c-9.021-8.055-23.305-4.676-27.76 6.567l-1.598 4.032c-3.854 9.726-9.659 18.56-17.057 25.957l-.493.493c.88 11.945 1.949 26.459 2.79 37.886 2.158 29.297 38.276 49.6 55.933 49.6s53.776-20.303 55.933-49.6c.634-8.615 1.783-24.206 2.79-37.886z" fill="#ffddce"/><path d="m256.547 336.777c15.45 0 28.504-10.261 32.717-24.34h-8.942c-1.938 0-3.509-1.571-3.509-3.509v-14.136c-7.297 4.991-15.354 7.849-20.813 7.849s-13.517-2.858-20.813-7.849v14.136c0 1.938-1.571 3.509-3.509 3.509h-7.847c4.213 14.079 17.266 24.34 32.716 24.34z" fill="#eaac9d"/><path d="m315.845 312.437h-26.58c-4.214 14.079-17.267 24.34-32.717 24.34s-28.504-10.261-32.717-24.34h-27.675c-13.544 0-24.524 10.98-24.524 24.524v84.76h168.737v-84.76c-.001-13.545-10.98-24.524-24.524-24.524z" fill="#90d8f9"/><path d="m256 220.671c-16.214 0-30.603 7.36-40.149 18.831.088 1.19.18 2.439.275 3.733.597 8.111 1.323 17.966 1.895 25.725 1.465 19.894 25.99 33.68 37.98 33.68s36.515-13.786 37.98-33.68c.431-5.85 1.211-16.436 1.895-25.725.094-1.274.186-2.523.275-3.732-9.547-11.471-23.936-18.832-40.151-18.832z" fill="#ffddce"/><g fill="#c6865c"><path d="m256 187.357c-23.754 0-42.504 20.181-40.759 43.871.151 2.05.363 4.925.609 8.275 9.546-11.471 23.935-18.831 40.149-18.831 16.215 0 30.604 7.36 40.149 18.832.229-3.111.439-5.958.609-8.275 1.746-23.689-17.002-43.872-40.757-43.872z"/><path d="m162.402 248.5v20.818c0 2.854 2.314 5.168 5.168 5.168h20.611v-70.785c-.187 2.537-.355 4.823-.498 6.757-1.175 15.959-12.426 29.248-25.281 38.042z"/><path d="m95.93 274.486c2.854 0 5.168-2.314 5.168-5.168v-20.818c-12.855-8.793-24.106-22.083-25.281-38.041-.159-2.155-.326-4.42-.498-6.757v70.784z"/><path d="m162.329 132.71c1.142-1.142 3.095-.333 3.095 1.282v8.609c0 12.63 10.238 22.868 22.868 22.868h2.705c.343-4.654.622-8.453.779-10.58 2.569-34.885-25.041-64.609-60.026-64.609-34.983 0-62.595 29.721-60.026 64.609.058.785.117 1.584.177 2.397h31.097c22.253 0 43.595-8.84 59.331-24.576z"/></g><path d="m188.292 165.469c-12.63 0-22.868-10.238-22.868-22.868v-8.609c0-1.615-1.953-2.424-3.095-1.282-15.736 15.736-37.078 24.576-59.332 24.576h-31.096c1.131 15.358 2.616 35.515 3.916 53.173 2.158 29.297 38.276 49.6 55.933 49.6s53.776-20.303 55.933-49.6c.289-3.924 2.159-29.312 3.313-44.99z" fill="#ffddce"/><path d="m438.481 172.081c-7.398-7.398-13.202-16.231-17.057-25.957l-1.598-4.032c-2.522-6.365-8.195-10.209-14.279-10.886l-1.574 21.367c-1.007 13.68-2.156 29.271-2.79 37.886-2.158 29.297-38.276 49.6-55.933 49.6-2.017 0-4.276-.265-6.697-.778 12.65 12.95 30.733 20.778 41.697 20.778 17.657 0 53.776-20.303 55.933-49.6.635-8.615 1.783-24.206 2.79-37.886z" fill="#ffcbbe"/><path d="m261.046 220.912c-.056.763-.113 1.539-.171 2.324-.684 9.289-1.464 19.876-1.895 25.725-1.394 18.924-23.654 32.321-36.141 33.582 8.062 12.312 24.151 20.098 33.161 20.098 11.99 0 36.515-13.786 37.98-33.68.431-5.85 1.211-16.436 1.895-25.725.094-1.274.186-2.523.275-3.732-8.544-10.267-20.966-17.241-35.104-18.592z" fill="#ffcbbe"/><path d="m188.292 165.469c-12.63 0-22.868-10.238-22.868-22.868v-8.609c0-1.615-1.953-2.424-3.095-1.282-1.852 1.852-3.781 3.608-5.78 5.265l-.552 7.494c-1.155 15.678-3.024 41.066-3.313 44.99-2.158 29.297-38.276 49.6-55.933 49.6-2.017 0-4.276-.265-6.697-.778 12.65 12.95 30.732 20.778 41.697 20.778 17.657 0 53.776-20.303 55.933-49.6.289-3.924 2.159-29.312 3.313-44.99z" fill="#ffcbbe"/><path d="m468.384 274.486h-39.145c-6.205 20.734-25.429 35.846-48.183 35.846-22.753 0-41.977-15.112-48.183-35.846h-39.913c-2.491 8.381-8.949 15.382-16.148 20.306l.001-.001v14.136c0 1.938 1.571 3.509 3.509 3.509h35.522c13.544 0 24.524 10.98 24.524 24.524v84.76h157.047c3.913 0 7.085-3.172 7.085-7.085v-104.033c0-19.946-16.17-36.116-36.116-36.116z" fill="#407093"/><path d="m196.155 312.437h35.522c1.938 0 3.509-1.571 3.509-3.509v-14.136c-7.199-4.924-13.656-11.924-16.147-20.305h-38.301c-6.206 20.734-25.429 35.846-48.183 35.846s-41.977-15.112-48.183-35.846h-40.756c-19.946 0-36.116 16.17-36.116 36.116v104.033c0 3.913 3.172 7.085 7.084 7.085h157.047v-84.76c.001-13.545 10.98-24.524 24.524-24.524z" fill="#dd636e"/><path d="m468.384 266.986h-49.981v-14.581c13.809-10.364 24.023-24.601 25.277-41.623 14.906-2.459 26.31-15.436 26.31-31.026v-1.409c0-11.236-9.142-20.378-20.379-20.378h-2.042l.186-2.529c1.377-18.701-5.153-37.306-17.917-51.044-12.763-13.737-30.837-21.616-49.588-21.616-18.752 0-36.827 7.879-49.59 21.617-12.764 13.738-19.294 32.342-17.916 51.044l.186 2.528h-2.042c-11.237 0-20.379 9.142-20.379 20.378v1.409c0 15.591 11.405 28.568 26.31 31.027 1.25 16.989 11.437 31.235 25.277 41.623v14.581h-40.452c.722-9.804 1.868-25.364 2.592-35.208.984-13.363-3.682-26.658-12.802-36.475s-22.036-15.447-35.437-15.447c-13.4 0-26.316 5.63-35.437 15.447-9.12 9.817-13.787 23.112-12.802 36.474.045.607 1.323 17.964 2.593 35.208h-14.673v-56.291c14.659-2.664 25.809-15.524 25.809-30.939v-1.409c0-11.236-9.142-20.378-20.378-20.378h-2.042l.186-2.529c1.377-18.701-5.153-37.305-17.917-51.043s-30.835-21.617-49.586-21.617-36.826 7.879-49.589 21.617-19.293 32.342-17.917 51.042c.047.633.175 2.368.187 2.531h-2.042c-11.237 0-20.378 9.142-20.378 20.378v1.409c0 15.416 11.15 28.276 25.809 30.939v56.291h-24.204c-24.05-.001-43.616 19.565-43.616 43.615v104.033c0 8.042 6.542 14.584 14.584 14.584h482.831c8.042 0 14.585-6.542 14.585-14.584v-51.532c0-4.142-3.357-7.5-7.5-7.5s-7.5 3.358-7.5 7.5v51.117h-26.829v-77.992c0-4.142-3.357-7.5-7.5-7.5s-7.5 3.358-7.5 7.5v77.992h-107.303v-77.26c0-17.658-14.365-32.023-32.023-32.023h-31.531v-6.426c5.636-4.423 10.62-9.997 13.76-16.525h29.512c8.806 21.36 30.038 35.846 53.47 35.846s44.664-14.486 53.469-35.846h33.858c15.779 0 28.616 12.837 28.616 28.616v17.501c0 4.142 3.357 7.5 7.5 7.5s7.5-3.358 7.5-7.5v-17.501c.001-24.05-19.565-43.616-43.615-43.616zm-182.681 5.602c-4.097 13.259-21.981 22.553-29.703 22.553-7.727 0-25.627-9.305-29.709-22.576-.036-.137-.077-.273-.12-.407-.346-1.218-.577-2.468-.671-3.747l-1.937-26.301c17.643-18.606 47.275-18.56 64.874 0l-1.936 26.301c-.094 1.273-.322 2.518-.666 3.73-.049.146-.093.296-.132.447zm-29.703-77.732c17.326 0 30.662 12.908 32.993 28.244-19.64-13.036-45.738-13.44-65.986 0 2.332-15.339 15.672-28.244 32.993-28.244zm-150.112 47.872c-.346-.288-.719-.545-1.114-.767-10.974-7.711-20.52-19.049-21.478-32.053-3.622-49.175-3.3-44.809-3.323-45.122h23.024c20.176 0 39.355-6.493 55.15-18.491 1.613 13.248 11.791 23.889 24.812 26.205-.565 7.675-1.826 24.797-2.755 37.408-.958 13.005-10.506 24.344-21.481 32.055-.392.221-.763.477-1.107.763-9.163 6.184-19.142 9.833-25.865 9.833-6.724.001-16.701-3.648-25.863-9.831zm64.014 9.678c3.846-2.887 7.502-6.15 10.779-9.761v24.341h-10.779zm36.588-74.059v1.409c0 6.837-4.194 12.713-10.144 15.19l1.618-21.977h3.147c2.967 0 5.379 2.413 5.379 5.378zm-74.74-80.567c14.811 0 28.52 5.976 38.6 16.826 10.081 10.851 15.034 24.961 13.946 39.731l-.224 3.042c-6.429-1.838-11.149-7.768-11.149-14.779v-8.609c0-3.78-2.257-7.158-5.75-8.604-3.491-1.446-7.476-.653-10.147 2.019-14.432 14.432-33.62 22.379-54.029 22.379h-23.937c.287-28.01 23.075-52.005 52.69-52.005zm-74.74 81.976v-1.409c0-2.965 2.413-5.378 5.378-5.378h3.147l1.619 21.977c-5.95-2.477-10.144-8.353-10.144-15.19zm25.809 62.889c3.278 3.61 6.933 6.874 10.779 9.761v14.581h-10.779zm250.049 94.315v77.26h-15.509v-49.746c0-4.142-3.357-7.5-7.5-7.5s-7.5 3.358-7.5 7.5v49.746h-91.106v-49.746c0-4.142-3.358-7.5-7.5-7.5s-7.5 3.358-7.5 7.5v49.746h-17.122v-8.677c0-4.142-3.358-7.5-7.5-7.5s-7.5 3.358-7.5 7.5v8.677h-105.689v-77.992c0-4.142-3.358-7.5-7.5-7.5s-7.5 3.358-7.5 7.5v77.992h-28.442v-103.618c0-15.779 12.837-28.616 28.616-28.616h35.462c4.828 11.8 13.411 21.658 24.604 28.125 3.58 2.068 8.17.851 10.246-2.742 2.072-3.586.845-8.174-2.742-10.246-6.42-3.709-11.681-8.921-15.389-15.137 7.352 0 12.8-5.868 12.8-12.668v-7.892c8.504 3.993 16.809 6.134 23.152 6.134s14.648-2.141 23.152-6.134v7.892c0 6.985 5.683 12.668 12.668 12.668h1.708c-6.27 10.406-16.865 17.95-29.021 20.156-4.075.74-6.779 4.644-6.04 8.719.737 4.06 4.625 6.781 8.719 6.04 19.288-3.501 35.667-16.945 43.087-34.915h27.903c3.14 6.528 8.124 12.101 13.76 16.525v6.426h-31.531c-17.658 0-32.024 14.366-32.024 32.023v33.582c0 4.142 3.358 7.5 7.5 7.5s7.5-3.358 7.5-7.5v-33.582c0-9.387 7.637-17.023 17.024-17.023h22.508c6.697 14.572 21.549 24.34 37.884 24.34 16.334 0 31.187-9.769 37.883-24.34h21.414c9.388 0 17.025 7.636 17.025 17.023zm-55.698-17.484c-4.973 6.04-12.512 9.801-20.622 9.801-8.242 0-15.893-3.884-20.861-10.096 4.094-1.606 7-5.597 7-10.253v-1.771c4.919 1.951 9.588 2.984 13.313 2.984s8.395-1.033 13.313-2.984v1.771c0 4.974 3.318 9.188 7.857 10.548zm172.441-146.507c2.966 0 5.379 2.413 5.379 5.378v1.409c0 6.837-4.194 12.713-10.144 15.19 2.14-29.062 1.491-20.256 1.618-21.977zm-107.962-58.362c10.081-10.851 23.789-16.827 38.601-16.827 30.123 0 53.911 25.066 52.645 54.862-2.927-5.042-4.203-8.535-6.096-13.314-2.994-7.557-9.504-13.185-17.413-15.056-7.912-1.872-16.252.244-22.314 5.657l-6.821 6.09-6.821-6.09c-6.062-5.414-14.401-7.528-22.314-5.657-7.909 1.871-14.419 7.5-17.413 15.056-1.906 4.81-3.156 8.25-6.096 13.314-.605-14.151 4.348-27.6 14.042-38.035zm-36.139 65.149v-1.409c0-2.965 2.413-5.378 5.379-5.378h3.147c.547 7.456.422 5.736 1.618 21.977-5.95-2.477-10.144-8.353-10.144-15.19zm26.286 30.153c-.966-13.119-1.609-21.857-2.542-34.519 7.236-7.722 12.88-16.625 16.795-26.503l1.598-4.032c2.528-6.378 10.634-8.341 15.792-3.736l7.648 6.83c5.225 4.666 13.103 4.666 18.325 0l7.649-6.83c5.13-4.58 13.25-2.679 15.792 3.736l1.598 4.032c3.915 9.878 9.559 18.781 16.795 26.503-.945 12.83-1.596 21.678-2.542 34.519-.958 13.006-10.508 24.346-21.485 32.058-.39.22-.758.474-1.1.758-9.164 6.185-19.144 9.836-25.869 9.836-6.724 0-16.702-3.65-25.866-9.834-.344-.286-.714-.541-1.107-.762-10.975-7.713-20.523-19.052-21.481-32.056zm49.261 92.924c-15.179 0-29.111-8.206-36.727-20.846 7.267 0 12.768-5.827 12.768-12.668v-7.893c8.504 3.993 16.809 6.134 23.152 6.134s14.648-2.141 23.152-6.134v7.893c0 6.985 5.683 12.668 12.668 12.668h1.712c-7.615 12.639-21.547 20.846-36.725 20.846z"/></g></svg>