<svg id="Capa_1" enable-background="new 0 0 512 512" height="512" viewBox="0 0 512 512" width="512" xmlns="http://www.w3.org/2000/svg"><g><path d="m151.327 460.54 14.393 4.153c117.382 33.865 243.913 7.7 338.235-69.945 10.317-8.493 10.78-24.134.982-33.221l-.445-.413c-9.992-9.268-24.785-10.762-36.322-3.744l-47.321 28.786c-47.906 29.142-106.292 35.467-159.328 17.261-21.89-7.514-26.028-36.681-7.092-49.987l49.215-34.585c9.281-6.522 11.667-19.256 5.377-28.696-4.777-7.169-13.462-10.674-21.877-8.828l-135.817 29.796-22.404 24.193v102.675z" fill="#ffddce"/><path d="m302.466 288.196-49.215 34.585c-13.64 9.586-15.305 27.4-6.988 39.423 1.957-3.308 4.665-6.313 8.167-8.774l49.215-34.585c9.281-6.522 11.668-19.256 5.377-28.696-1.083-1.625-2.375-3.052-3.812-4.281-.838.836-1.743 1.624-2.744 2.328z" fill="#ffcbbe"/><path d="m505.171 361.767c-.735.818-1.515 1.609-2.394 2.332-94.322 77.644-220.853 103.81-338.235 69.945l-14.393-4.152-21.225-21.369v29.462l22.404 22.556 14.393 4.152c117.381 33.865 243.913 7.699 338.235-69.945 10.23-8.421 10.757-23.861 1.215-32.981z" fill="#ffcbbe"/><path d="m8.068 487.048h130.95c6.798 0 12.31-5.511 12.31-12.31v-174.823c0-6.798-5.511-12.31-12.31-12.31h-130.95c-4.456 0-8.068 3.612-8.068 8.068v183.308c0 4.455 3.612 8.067 8.068 8.067z" fill="#80b4fb"/><path d="m151.328 474.739v-174.824c0-6.798-5.511-12.31-12.31-12.31h-13.768v157.45c0 6.798-5.511 12.31-12.31 12.31h-112.94v21.616c0 4.456 3.612 8.068 8.068 8.068h130.95c6.798-.001 12.31-5.512 12.31-12.31z" fill="#61a2f9"/><g><path d="m96.656 433.76c-4.268 0-7.726-3.459-7.726-7.726v-16.758c0-4.268 3.459-7.726 7.726-7.726s7.726 3.459 7.726 7.726v16.758c0 4.267-3.459 7.726-7.726 7.726z" fill="#365e7d"/></g><path d="m433.916 24.952h-229.715c-5.132 0-9.292 4.16-9.292 9.292v147.295c0 5.132 4.16 9.292 9.292 9.292h81.781c3.524 0 6.744 1.993 8.316 5.146l16.445 32.985c3.421 6.862 13.211 6.862 16.632 0l16.445-32.985c1.572-3.153 4.793-5.146 8.316-5.146h81.78c5.132 0 9.292-4.16 9.292-9.292v-147.295c.001-5.132-4.16-9.292-9.292-9.292z" fill="#80b4fb"/><g fill="#61a2f9"><path d="m433.916 24.952h-28.663c5.132 0 9.292 4.16 9.292 9.292v147.295c0 5.132-4.16 9.292-9.292 9.292h28.663c5.132 0 9.292-4.16 9.292-9.292v-147.295c.001-5.132-4.16-9.292-9.292-9.292z"/><path d="m315.157 195.977-10.429 20.919 6.015 12.066c3.421 6.862 13.211 6.862 16.632 0l16.445-32.985c1.572-3.153 4.793-5.146 8.316-5.146h-28.663c-3.524 0-6.744 1.993-8.316 5.146z"/></g><g><path d="m253.729 121.322c-4.268 0-7.726-3.459-7.726-7.726v-11.408c0-4.268 3.459-7.726 7.726-7.726 4.268 0 7.726 3.459 7.726 7.726v11.408c0 4.267-3.458 7.726-7.726 7.726z" fill="#365e7d"/></g><g><path d="m319.059 121.322c-4.268 0-7.726-3.459-7.726-7.726v-11.408c0-4.268 3.459-7.726 7.726-7.726 4.268 0 7.726 3.459 7.726 7.726v11.408c0 4.267-3.458 7.726-7.726 7.726z" fill="#365e7d"/></g><g><path d="m384.389 121.322c-4.268 0-7.726-3.459-7.726-7.726v-11.408c0-4.268 3.459-7.726 7.726-7.726s7.726 3.459 7.726 7.726v11.408c0 4.267-3.458 7.726-7.726 7.726z" fill="#365e7d"/></g></g></svg>