<svg id="Capa_1" enable-background="new 0 0 512 512" height="512" viewBox="0 0 512 512" width="512" xmlns="http://www.w3.org/2000/svg"><path d="m493.028 47.302h-74.891v65.942h74.891c4.482 0 8.115-3.634 8.115-8.116v-49.71c.001-4.482-3.633-8.116-8.115-8.116z" fill="#dfebfa"/><path d="m493.028 80.274h-74.891v32.971h74.891c4.482 0 8.115-3.634 8.115-8.116v-32.971c.001 4.482-3.633 8.116-8.115 8.116z" fill="#b1dbfc"/><path d="m493.028 223.214h-149.842v65.942h149.842c4.482 0 8.115-3.634 8.115-8.116v-49.71c.001-4.482-3.633-8.116-8.115-8.116z" fill="#dfebfa"/><path d="m493.028 256.185h-149.842v32.971h149.842c4.482 0 8.115-3.634 8.115-8.116v-32.97c.001 4.482-3.633 8.115-8.115 8.115z" fill="#b1dbfc"/><path d="m493.028 399.126h-227.821v65.942h227.821c4.482 0 8.115-3.634 8.115-8.115v-49.711c.001-4.482-3.633-8.116-8.115-8.116z" fill="#dfebfa"/><path d="m493.028 432.097h-227.821v32.971h227.821c4.482 0 8.115-3.634 8.115-8.115v-32.971c.001 4.482-3.633 8.115-8.115 8.115z" fill="#b1dbfc"/><circle cx="83.663" cy="80.274" fill="#fee55a" r="72.588"/><path d="m38.485 80.274c0-35.402 25.349-64.868 58.883-71.278-4.44-.849-9.018-1.31-13.705-1.31-40.089 0-72.588 32.499-72.588 72.588s32.499 72.588 72.588 72.588c4.687 0 9.265-.461 13.705-1.31-33.534-6.411-58.883-35.877-58.883-71.278z" fill="#ffd301"/><circle cx="83.663" cy="256.185" fill="#43cb8e" r="72.588"/><path d="m38.485 256.185c0-35.402 25.349-64.868 58.883-71.278-4.44-.849-9.018-1.31-13.705-1.31-40.089 0-72.588 32.499-72.588 72.588s32.499 72.588 72.588 72.588c4.687 0 9.265-.461 13.705-1.31-33.534-6.41-58.883-35.876-58.883-71.278z" fill="#00ba66"/><circle cx="56.253" cy="244.141" fill="#00a855" r="13.503"/><circle cx="111.073" cy="244.141" fill="#00a855" r="13.503"/><circle cx="83.663" cy="432.097" fill="#ff656f" r="72.588"/><path d="m38.485 432.098c0-35.402 25.349-64.868 58.883-71.278-4.44-.849-9.018-1.31-13.705-1.31-40.089 0-72.588 32.499-72.588 72.588s32.499 72.588 72.588 72.588c4.687 0 9.265-.461 13.705-1.31-33.534-6.411-58.883-35.877-58.883-71.278z" fill="#ff4756"/><path d="m123.58 92.739h-79.834c-3.069 0-5.174 3.129-3.985 5.959 7.201 17.144 24.142 29.186 43.902 29.186s36.701-12.042 43.902-29.186c1.189-2.83-.916-5.959-3.985-5.959z" fill="#dfebfa"/><path d="m67.171 98.698c-1.189-2.83.916-5.958 3.985-5.958h-27.41c-3.069 0-5.174 3.128-3.985 5.958 7.201 17.144 24.142 29.186 43.902 29.186 4.766 0 9.365-.707 13.705-2.01-13.657-4.102-24.733-14.167-30.197-27.176z" fill="#b1dbfc"/><path d="m267.207 399.126h-69.863c-4.482 0-8.116 3.633-8.116 8.116v49.711c0 4.482 3.634 8.116 8.116 8.116h69.863z" fill="#ff656f"/><path d="m189.229 423.982v32.971c0 4.482 3.633 8.115 8.116 8.115h69.863v-32.971h-69.863c-4.483 0-8.116-3.633-8.116-8.115z" fill="#ff4756"/><path d="m420.137 47.302h-222.793c-4.482 0-8.116 3.633-8.116 8.116v49.711c0 4.482 3.634 8.116 8.116 8.116h222.793z" fill="#fee55a"/><path d="m189.229 72.158v32.971c0 4.482 3.633 8.116 8.116 8.116h222.793v-32.972h-222.794c-4.482 0-8.115-3.633-8.115-8.115z" fill="#ffd301"/><path d="m345.186 223.214h-147.842c-4.482 0-8.116 3.633-8.116 8.116v49.711c0 4.482 3.634 8.116 8.116 8.116h147.842z" fill="#43cb8e"/><path d="m189.229 248.07v32.971c0 4.482 3.633 8.116 8.116 8.116h147.842v-32.971h-147.843c-4.482-.001-8.115-3.634-8.115-8.116z" fill="#00ba66"/><path d="m83.554 160.176c44.16 0 80.088-35.928 80.088-80.088s-35.928-80.088-80.088-80.088-80.088 35.927-80.088 80.088 35.928 80.088 80.088 80.088zm0-145.176c35.89 0 65.088 29.198 65.088 65.088s-29.198 65.088-65.088 65.088-65.088-29.199-65.088-65.088 29.198-65.088 65.088-65.088z"/><path d="m77.146 243.955c0-11.581-9.422-21.003-21.003-21.003s-21.003 9.422-21.003 21.003c0 11.582 9.422 21.003 21.003 21.003s21.003-9.421 21.003-21.003zm-27.005 0c0-3.31 2.693-6.003 6.003-6.003s6.003 2.693 6.003 6.003-2.693 6.003-6.003 6.003-6.003-2.693-6.003-6.003z"/><path d="m131.967 243.955c0-11.581-9.422-21.003-21.003-21.003s-21.003 9.422-21.003 21.003c0 11.582 9.422 21.003 21.003 21.003s21.003-9.421 21.003-21.003zm-21.003 6.003c-3.31 0-6.003-2.693-6.003-6.003s2.693-6.003 6.003-6.003 6.003 2.693 6.003 6.003-2.694 6.003-6.003 6.003z"/><path d="m83.554 512c44.16 0 80.088-35.927 80.088-80.088s-35.928-80.088-80.088-80.088-80.088 35.927-80.088 80.088 35.928 80.088 80.088 80.088zm0-145.176c35.89 0 65.088 29.199 65.088 65.088s-29.199 65.088-65.088 65.088-65.088-29.198-65.088-65.088 29.198-65.088 65.088-65.088z"/><path d="m83.554 135.198c22.25 0 42.197-13.26 50.817-33.782 3.264-7.77-2.48-16.362-10.9-16.362h-79.834c-8.428 0-14.162 8.597-10.9 16.363 8.619 20.521 28.567 33.781 50.817 33.781zm34.792-35.144c-7.09 12.379-20.268 20.145-34.792 20.145s-27.702-7.766-34.792-20.145z"/><path d="m43.724 70.464c4.143 0 7.5-3.358 7.5-7.5 0-3.422 2.783-6.206 6.205-6.206s6.206 2.784 6.206 6.206c0 4.142 3.357 7.5 7.5 7.5s7.5-3.358 7.5-7.5c0-11.693-9.513-21.206-21.206-21.206-11.692 0-21.205 9.513-21.205 21.206 0 4.142 3.357 7.5 7.5 7.5z"/><path d="m95.973 70.464c4.143 0 7.5-3.358 7.5-7.5 0-3.422 2.784-6.206 6.206-6.206s6.206 2.784 6.206 6.206c0 4.142 3.357 7.5 7.5 7.5s7.5-3.358 7.5-7.5c0-11.693-9.513-21.206-21.206-21.206s-21.206 9.513-21.206 21.206c0 4.142 3.357 7.5 7.5 7.5z"/><path d="m43.724 429.141c4.143 0 7.5-3.358 7.5-7.5 0-3.422 2.783-6.206 6.205-6.206s6.206 2.784 6.206 6.206c0 4.142 3.357 7.5 7.5 7.5s7.5-3.358 7.5-7.5c0-11.693-9.513-21.206-21.206-21.206-11.692 0-21.205 9.513-21.205 21.206 0 4.142 3.357 7.5 7.5 7.5z"/><path d="m95.973 429.141c4.143 0 7.5-3.358 7.5-7.5 0-3.422 2.784-6.206 6.206-6.206s6.206 2.784 6.206 6.206c0 4.142 3.357 7.5 7.5 7.5s7.5-3.358 7.5-7.5c0-11.693-9.513-21.206-21.206-21.206s-21.206 9.513-21.206 21.206c0 4.142 3.357 7.5 7.5 7.5z"/><path d="m44.067 470.333c2.984 2.872 7.732 2.782 10.604-.202 15.772-16.385 41.938-16.44 57.764 0 2.87 2.983 7.618 3.076 10.604.202 2.984-2.873 3.075-7.621.202-10.604-21.669-22.512-57.635-22.588-79.377 0-2.872 2.983-2.781 7.731.203 10.604z"/><path d="m49.417 292.705h68.273c4.143 0 7.5-3.358 7.5-7.5s-3.357-7.5-7.5-7.5h-68.273c-4.143 0-7.5 3.358-7.5 7.5s3.357 7.5 7.5 7.5z"/><path d="m197.235 120.559h295.684c8.61 0 15.615-7.005 15.615-15.615v-49.712c0-8.61-7.005-15.615-15.615-15.615-4.849 0-290.826 0-295.684 0-8.61 0-15.616 7.005-15.616 15.615v49.711c0 8.611 7.006 15.616 15.616 15.616zm230.293-65.942h65.391c.339 0 .615.276.615.615v49.711c0 .339-.276.615-.615.615h-65.391zm-230.909.615c0-.339.276-.615.616-.615h215.293v50.942h-215.293c-.34 0-.616-.276-.616-.615z"/><path d="m181.619 280.855c0 8.61 7.006 15.616 15.616 15.616h295.684c8.61 0 15.615-7.005 15.615-15.616v-49.711c0-8.61-7.005-15.616-15.615-15.616-12.975 0-282.709 0-295.684 0-8.61 0-15.616 7.005-15.616 15.616zm170.958-50.326h140.342c.339 0 .615.276.615.616v49.711c0 .339-.276.616-.615.616h-140.342zm-155.958.616c0-.339.276-.616.616-.616h140.342v50.942h-140.342c-.34 0-.616-.276-.616-.616z"/><path d="m83.554 336.088c36.905 0 68.869-24.996 77.731-60.786.995-4.021-1.457-8.087-5.478-9.083-4.021-.998-8.088 1.458-9.083 5.478-7.201 29.081-33.178 49.391-63.171 49.391-35.89 0-65.088-29.199-65.088-65.088s29.198-65.088 65.088-65.088c29.993 0 55.97 20.31 63.171 49.391.995 4.021 5.062 6.472 9.083 5.478 4.021-.996 6.473-5.063 5.478-9.083-8.862-35.79-40.826-60.785-77.731-60.785-44.16 0-80.088 35.927-80.088 80.088s35.928 80.087 80.088 80.087z"/><path d="m181.619 407.057v49.711c0 8.61 7.006 15.616 15.616 15.616h295.684c8.61 0 15.615-7.005 15.615-15.616v-49.711c0-8.61-7.005-15.615-15.615-15.615h-130.342c-4.143 0-7.5 3.358-7.5 7.5s3.357 7.5 7.5 7.5h130.342c.339 0 .615.276.615.615v49.711c0 .339-.276.616-.615.616h-218.32v-50.942h52.979c4.143 0 7.5-3.358 7.5-7.5s-3.357-7.5-7.5-7.5c-3.354 0-125.111 0-130.342 0-8.609-.001-15.617 7.002-15.617 15.615zm15 0c0-.339.276-.616.616-.616h62.363v50.942h-62.363c-.34 0-.616-.276-.616-.616z"/></svg>