<svg id="Capa_1" enable-background="new 0 0 512 512" height="512" viewBox="0 0 512 512" width="512" xmlns="http://www.w3.org/2000/svg"><g><path d="m271 90h-105-105c-8.284 0-15 6.714-15 15v362c0 24.853 20.147 45 45 45h75 75c24.853 0 45-20.147 45-45v-362c0-8.286-6.716-15-15-15z" fill="#f0f7ff"/><path d="m286 467v-362c0-8.286-6.716-15-15-15h-105v422h75c24.853 0 45-20.147 45-45z" fill="#dfe7f4"/><path d="m166 13.77-.205-1.23c-1.201-7.237-7.456-12.54-14.795-12.54h-90c-8.291 0-15 6.709-15 15s6.709 15 15 15h77.3l9.998 60 17.702 15 12.706-15z" fill="#766e6e"/><path d="m178.706 90h-12.706-17.703l17.703 106.23.205 1.23c1.216 7.339 7.573 12.539 14.78 12.539.82 0 1.641-.059 2.476-.205 8.174-1.362 13.696-9.082 12.334-17.256z" fill="#dfe7f4"/><path d="m180.985 210c.82 0 1.641-.059 2.476-.205 8.174-1.362 13.696-9.082 12.334-17.256l-17.089-102.539h-12.706v106.23l.205 1.23c1.216 7.34 7.573 12.54 14.78 12.54z" fill="#c7cfe1"/><path d="m166 180h-90v287c0 8.284 6.716 15 15 15h75 75c8.284 0 15-6.716 15-15v-287z" fill="#ff7b4a"/><path d="m256 467v-287h-90v302h75c8.284 0 15-6.716 15-15z" fill="#ff435b"/><path d="m361 180c-11.567 0-22.02 4.508-30 11.704-9.139 8.243-15 20.048-15 33.296v30c0 8.291 6.709 15 15 15s15-6.709 15-15v-30c0-8.276 6.724-15 15-15 8.291 0 15-6.709 15-15s-6.709-15-15-15z" fill="#00c8c8"/><ellipse cx="331" cy="376" fill="#fabe2c" rx="135" ry="136"/><path d="m466 376c0-74.443-60.557-136-135-136v272c74.443 0 135-61.557 135-136z" fill="#ff9100"/></g></svg>